<?xml version="1.0" encoding="UTF-8" standalone="no"?>
<!DOCTYPE svg PUBLIC "-//W3C//DTD SVG 1.1//EN"
 "http://www.w3.org/Graphics/SVG/1.1/DTD/svg11.dtd">
<!-- Generated by graphviz version 2.36.0 (20140111.2315)
 -->
<!-- Title: %3 Pages: 1 -->
<svg width="297pt" height="360pt"
 viewBox="0.00 0.00 297.13 360.00" xmlns="http://www.w3.org/2000/svg" xmlns:xlink="http://www.w3.org/1999/xlink">
<g id="graph0" class="graph" transform="scale(0.465718 0.465718) rotate(0) translate(4 769)">
<title>%3</title>
<polygon fill="white" stroke="none" points="-4,4 -4,-769 634,-769 634,4 -4,4"/>
<!-- vsftpd -->
<g id="node1" class="node"><title>vsftpd</title>
<ellipse fill="none" stroke="black" cx="57" cy="-234" rx="32.4324" ry="18"/>
<text text-anchor="middle" x="57" y="-229.8" font-family="Times,serif" font-size="14.00">vsftpd</text>
</g>
<!-- ftpd_t -->
<g id="node2" class="node"><title>ftpd_t</title>
<ellipse fill="none" stroke="black" cx="259" cy="-234" rx="31.4636" ry="18"/>
<text text-anchor="middle" x="259" y="-229.8" font-family="Times,serif" font-size="14.00">ftpd_t</text>
</g>
<!-- vsftpd&#45;&#45;ftpd_t -->
<g id="edge1" class="edge"><title>vsftpd&#45;&#45;ftpd_t</title>
<path fill="none" stroke="black" d="M89.25,-234C127.043,-234 190.228,-234 227.624,-234"/>
</g>
<!-- ftp_home_dir -->
<g id="node3" class="node"><title>ftp_home_dir</title>
<ellipse fill="none" stroke="black" cx="517" cy="-450" rx="58.491" ry="18"/>
<text text-anchor="middle" x="517" y="-445.8" font-family="Times,serif" font-size="14.00">ftp_home_dir</text>
</g>
<!-- ftpd_t&#45;&#45;ftp_home_dir -->
<g id="edge2" class="edge"><title>ftpd_t&#45;&#45;ftp_home_dir</title>
<path fill="none" stroke="black" d="M268.013,-251.265C286.371,-288.818 335.251,-378.141 404,-423 421.002,-434.094 442.128,-440.635 461.436,-444.49"/>
<text text-anchor="middle" x="378" y="-410.8" font-family="Times,serif" font-size="14.00">off</text>
</g>
<!-- ftpd_use_cifs -->
<g id="node4" class="node"><title>ftpd_use_cifs</title>
<ellipse fill="none" stroke="black" cx="517" cy="-396" rx="57.5065" ry="18"/>
<text text-anchor="middle" x="517" y="-391.8" font-family="Times,serif" font-size="14.00">ftpd_use_cifs</text>
</g>
<!-- ftpd_t&#45;&#45;ftpd_use_cifs -->
<g id="edge3" class="edge"><title>ftpd_t&#45;&#45;ftpd_use_cifs</title>
<path fill="none" stroke="black" d="M272.715,-250.58C295.677,-279.317 347.003,-338.242 404,-369 422.218,-378.831 444.012,-385.126 463.513,-389.138"/>
<text text-anchor="middle" x="378" y="-361.8" font-family="Times,serif" font-size="14.00">off</text>
</g>
<!-- ftpd_use_fusefs -->
<g id="node5" class="node"><title>ftpd_use_fusefs</title>
<ellipse fill="none" stroke="black" cx="517" cy="-342" rx="66.208" ry="18"/>
<text text-anchor="middle" x="517" y="-337.8" font-family="Times,serif" font-size="14.00">ftpd_use_fusefs</text>
</g>
<!-- ftpd_t&#45;&#45;ftpd_use_fusefs -->
<g id="edge4" class="edge"><title>ftpd_t&#45;&#45;ftpd_use_fusefs</title>
<path fill="none" stroke="black" d="M280.095,-247.681C307.145,-265.53 357.282,-296.639 404,-315 422.243,-322.17 442.932,-327.807 461.52,-332.034"/>
<text text-anchor="middle" x="378" y="-309.8" font-family="Times,serif" font-size="14.00">off</text>
</g>
<!-- ftpd_connect_db -->
<g id="node6" class="node"><title>ftpd_connect_db</title>
<ellipse fill="none" stroke="black" cx="517" cy="-288" rx="69.5736" ry="18"/>
<text text-anchor="middle" x="517" y="-283.8" font-family="Times,serif" font-size="14.00">ftpd_connect_db</text>
</g>
<!-- ftpd_t&#45;&#45;ftpd_connect_db -->
<g id="edge5" class="edge"><title>ftpd_t&#45;&#45;ftpd_connect_db</title>
<path fill="none" stroke="black" d="M288.869,-240.09C330.844,-248.944 409.464,-265.528 462.282,-276.669"/>
<text text-anchor="middle" x="378" y="-262.8" font-family="Times,serif" font-size="14.00">off</text>
</g>
<!-- ftpd_full_access -->
<g id="node7" class="node"><title>ftpd_full_access</title>
<ellipse fill="none" stroke="black" cx="517" cy="-234" rx="68.1201" ry="18"/>
<text text-anchor="middle" x="517" y="-229.8" font-family="Times,serif" font-size="14.00">ftpd_full_access</text>
</g>
<!-- ftpd_t&#45;&#45;ftpd_full_access -->
<g id="edge6" class="edge"><title>ftpd_t&#45;&#45;ftpd_full_access</title>
<path fill="none" stroke="black" d="M290.372,-234C329.178,-234 397.46,-234 448.773,-234"/>
<text text-anchor="middle" x="378" y="-236.8" font-family="Times,serif" font-size="14.00">off</text>
</g>
<!-- ftpd_use_passive_mode -->
<g id="node12" class="node"><title>ftpd_use_passive_mode</title>
<ellipse fill="none" stroke="black" cx="517" cy="-180" rx="95.1741" ry="18"/>
<text text-anchor="middle" x="517" y="-175.8" font-family="Times,serif" font-size="14.00">ftpd_use_passive_mode</text>
</g>
<!-- ftpd_t&#45;&#45;ftpd_use_passive_mode -->
<g id="edge9" class="edge"><title>ftpd_t&#45;&#45;ftpd_use_passive_mode</title>
<path fill="none" stroke="black" d="M288.869,-227.91C328.425,-219.567 400.524,-204.358 452.905,-193.309"/>
<text text-anchor="middle" x="378" y="-213.8" font-family="Times,serif" font-size="14.00">off</text>
</g>
<!-- ftpd_use_nfs -->
<g id="node14" class="node"><title>ftpd_use_nfs</title>
<ellipse fill="none" stroke="black" cx="517" cy="-126" rx="55.5854" ry="18"/>
<text text-anchor="middle" x="517" y="-121.8" font-family="Times,serif" font-size="14.00">ftpd_use_nfs</text>
</g>
<!-- ftpd_t&#45;&#45;ftpd_use_nfs -->
<g id="edge11" class="edge"><title>ftpd_t&#45;&#45;ftpd_use_nfs</title>
<path fill="none" stroke="black" d="M280.095,-220.319C307.145,-202.47 357.282,-171.361 404,-153 424.291,-145.025 447.607,-138.947 467.694,-134.595"/>
<text text-anchor="middle" x="378" y="-170.8" font-family="Times,serif" font-size="14.00">off</text>
</g>
<!-- ftpd_connect_all_unreserved -->
<g id="node15" class="node"><title>ftpd_connect_all_unreserved</title>
<ellipse fill="none" stroke="black" cx="517" cy="-72" rx="112.997" ry="18"/>
<text text-anchor="middle" x="517" y="-67.8" font-family="Times,serif" font-size="14.00">ftpd_connect_all_unreserved</text>
</g>
<!-- ftpd_t&#45;&#45;ftpd_connect_all_unreserved -->
<g id="edge12" class="edge"><title>ftpd_t&#45;&#45;ftpd_connect_all_unreserved</title>
<path fill="none" stroke="black" d="M272.715,-217.42C295.677,-188.683 347.003,-129.758 404,-99 414.737,-93.2057 426.717,-88.6398 438.737,-85.0458"/>
<text text-anchor="middle" x="378" y="-122.8" font-family="Times,serif" font-size="14.00">off</text>
</g>
<!-- ftpd_anon_write -->
<g id="node18" class="node"><title>ftpd_anon_write</title>
<ellipse fill="none" stroke="black" cx="517" cy="-18" rx="68.6133" ry="18"/>
<text text-anchor="middle" x="517" y="-13.8" font-family="Times,serif" font-size="14.00">ftpd_anon_write</text>
</g>
<!-- ftpd_t&#45;&#45;ftpd_anon_write -->
<g id="edge15" class="edge"><title>ftpd_t&#45;&#45;ftpd_anon_write</title>
<path fill="none" stroke="black" d="M268.013,-216.735C286.371,-179.182 335.251,-89.8593 404,-45 418.825,-35.3268 436.784,-29.115 453.94,-25.1273"/>
<text text-anchor="middle" x="378" y="-71.8" font-family="Times,serif" font-size="14.00">off</text>
</g>
<!-- tftp_home_dir -->
<g id="node8" class="node"><title>tftp_home_dir</title>
<ellipse fill="none" stroke="black" cx="517" cy="-558" rx="60.9046" ry="18"/>
<text text-anchor="middle" x="517" y="-553.8" font-family="Times,serif" font-size="14.00">tftp_home_dir</text>
</g>
<!-- tftpd_t -->
<g id="node9" class="node"><title>tftpd_t</title>
<ellipse fill="none" stroke="black" cx="259" cy="-531" rx="33.877" ry="18"/>
<text text-anchor="middle" x="259" y="-526.8" font-family="Times,serif" font-size="14.00">tftpd_t</text>
</g>
<!-- tftpd_t&#45;&#45;tftp_home_dir -->
<g id="edge7" class="edge"><title>tftpd_t&#45;&#45;tftp_home_dir</title>
<path fill="none" stroke="black" d="M292.163,-534.392C334.062,-538.811 408.015,-546.611 459.399,-552.03"/>
<text text-anchor="middle" x="378" y="-546.8" font-family="Times,serif" font-size="14.00">off</text>
</g>
<!-- tftp_anon_write -->
<g id="node17" class="node"><title>tftp_anon_write</title>
<ellipse fill="none" stroke="black" cx="517" cy="-504" rx="66.6839" ry="18"/>
<text text-anchor="middle" x="517" y="-499.8" font-family="Times,serif" font-size="14.00">tftp_anon_write</text>
</g>
<!-- tftpd_t&#45;&#45;tftp_anon_write -->
<g id="edge14" class="edge"><title>tftpd_t&#45;&#45;tftp_anon_write</title>
<path fill="none" stroke="black" d="M292.163,-527.608C332.786,-523.323 403.542,-515.861 454.644,-510.471"/>
<text text-anchor="middle" x="378" y="-522.8" font-family="Times,serif" font-size="14.00">off</text>
</g>
<!-- sftpd_enable_homedirs -->
<g id="node10" class="node"><title>sftpd_enable_homedirs</title>
<ellipse fill="none" stroke="black" cx="259" cy="-693" rx="92.7515" ry="18"/>
<text text-anchor="middle" x="259" y="-688.8" font-family="Times,serif" font-size="14.00">sftpd_enable_homedirs</text>
</g>
<!-- sftpd_t -->
<g id="node11" class="node"><title>sftpd_t</title>
<ellipse fill="none" stroke="black" cx="57" cy="-639" rx="34.8458" ry="18"/>
<text text-anchor="middle" x="57" y="-634.8" font-family="Times,serif" font-size="14.00">sftpd_t</text>
</g>
<!-- sftpd_t&#45;&#45;sftpd_enable_homedirs -->
<g id="edge8" class="edge"><title>sftpd_t&#45;&#45;sftpd_enable_homedirs</title>
<path fill="none" stroke="black" d="M88.3757,-647.201C118.973,-655.463 166.834,-668.385 203.927,-678.4"/>
<text text-anchor="middle" x="140" y="-664.8" font-family="Times,serif" font-size="14.00">off</text>
</g>
<!-- sftpd_write_ssh_home -->
<g id="node13" class="node"><title>sftpd_write_ssh_home</title>
<ellipse fill="none" stroke="black" cx="259" cy="-639" rx="90.3637" ry="18"/>
<text text-anchor="middle" x="259" y="-634.8" font-family="Times,serif" font-size="14.00">sftpd_write_ssh_home</text>
</g>
<!-- sftpd_t&#45;&#45;sftpd_write_ssh_home -->
<g id="edge10" class="edge"><title>sftpd_t&#45;&#45;sftpd_write_ssh_home</title>
<path fill="none" stroke="black" d="M91.9273,-639C113.102,-639 141.431,-639 168.689,-639"/>
<text text-anchor="middle" x="140" y="-641.8" font-family="Times,serif" font-size="14.00">off</text>
</g>
<!-- sftpd_full_access -->
<g id="node16" class="node"><title>sftpd_full_access</title>
<ellipse fill="none" stroke="black" cx="259" cy="-585" rx="71.5031" ry="18"/>
<text text-anchor="middle" x="259" y="-580.8" font-family="Times,serif" font-size="14.00">sftpd_full_access</text>
</g>
<!-- sftpd_t&#45;&#45;sftpd_full_access -->
<g id="edge13" class="edge"><title>sftpd_t&#45;&#45;sftpd_full_access</title>
<path fill="none" stroke="black" d="M88.3757,-630.799C120.503,-622.124 171.664,-608.311 209.406,-598.12"/>
<text text-anchor="middle" x="140" y="-620.8" font-family="Times,serif" font-size="14.00">off</text>
</g>
<!-- sftpd_anon_write -->
<g id="node19" class="node"><title>sftpd_anon_write</title>
<ellipse fill="none" stroke="black" cx="259" cy="-747" rx="71.9963" ry="18"/>
<text text-anchor="middle" x="259" y="-742.8" font-family="Times,serif" font-size="14.00">sftpd_anon_write</text>
</g>
<!-- anon_sftpd_t -->
<g id="node20" class="node"><title>anon_sftpd_t</title>
<ellipse fill="none" stroke="black" cx="57" cy="-747" rx="56.07" ry="18"/>
<text text-anchor="middle" x="57" y="-742.8" font-family="Times,serif" font-size="14.00">anon_sftpd_t</text>
</g>
<!-- anon_sftpd_t&#45;&#45;sftpd_anon_write -->
<g id="edge16" class="edge"><title>anon_sftpd_t&#45;&#45;sftpd_anon_write</title>
<path fill="none" stroke="black" d="M113.446,-747C136.104,-747 162.598,-747 186.671,-747"/>
<text text-anchor="middle" x="140" y="-749.8" font-family="Times,serif" font-size="14.00">off</text>
</g>
<!-- tftpd -->
<g id="node21" class="node"><title>tftpd</title>
<ellipse fill="none" stroke="black" cx="57" cy="-531" rx="27" ry="18"/>
<text text-anchor="middle" x="57" y="-526.8" font-family="Times,serif" font-size="14.00">tftpd</text>
</g>
<!-- tftpd&#45;&#45;tftpd_t -->
<g id="edge17" class="edge"><title>tftpd&#45;&#45;tftpd_t</title>
<path fill="none" stroke="black" d="M84.1465,-531C120.359,-531 185.764,-531 225.205,-531"/>
</g>
</g>
</svg>
