<?xml version="1.0" encoding="UTF-8" standalone="no"?>
<!DOCTYPE svg PUBLIC "-//W3C//DTD SVG 1.1//EN"
 "http://www.w3.org/Graphics/SVG/1.1/DTD/svg11.dtd">
<!-- Generated by graphviz version 2.36.0 (20140111.2315)
 -->
<!-- Title: %3 Pages: 1 -->
<svg width="277pt" height="360pt"
 viewBox="0.00 0.00 276.64 360.00" xmlns="http://www.w3.org/2000/svg" xmlns:xlink="http://www.w3.org/1999/xlink">
<g id="graph0" class="graph" transform="scale(0.465718 0.465718) rotate(0) translate(4 769)">
<title>%3</title>
<polygon fill="white" stroke="none" points="-4,4 -4,-769 590,-769 590,4 -4,4"/>
<!-- vsftpd -->
<g id="node1" class="node"><title>vsftpd</title>
<ellipse fill="none" stroke="black" cx="35" cy="-234" rx="32.4324" ry="18"/>
<text text-anchor="middle" x="35" y="-229.8" font-family="Times,serif" font-size="14.00">vsftpd</text>
</g>
<!-- ftpd_t -->
<g id="node2" class="node"><title>ftpd_t</title>
<ellipse fill="none" stroke="black" cx="215" cy="-234" rx="31.4636" ry="18"/>
<text text-anchor="middle" x="215" y="-229.8" font-family="Times,serif" font-size="14.00">ftpd_t</text>
</g>
<!-- vsftpd&#45;&#45;ftpd_t -->
<g id="edge1" class="edge"><title>vsftpd&#45;&#45;ftpd_t</title>
<path fill="none" stroke="black" d="M67.4131,-234C100.149,-234 151.101,-234 183.496,-234"/>
</g>
<!-- ftp_home_dir -->
<g id="node3" class="node"><title>ftp_home_dir</title>
<ellipse fill="none" stroke="black" cx="473" cy="-450" rx="58.491" ry="18"/>
<text text-anchor="middle" x="473" y="-445.8" font-family="Times,serif" font-size="14.00">ftp_home_dir</text>
</g>
<!-- ftpd_t&#45;&#45;ftp_home_dir -->
<g id="edge2" class="edge"><title>ftpd_t&#45;&#45;ftp_home_dir</title>
<path fill="none" stroke="black" d="M224.013,-251.265C242.371,-288.818 291.251,-378.141 360,-423 377.002,-434.094 398.128,-440.635 417.436,-444.49"/>
<text text-anchor="middle" x="334" y="-410.8" font-family="Times,serif" font-size="14.00">off</text>
</g>
<!-- ftpd_use_cifs -->
<g id="node4" class="node"><title>ftpd_use_cifs</title>
<ellipse fill="none" stroke="black" cx="473" cy="-396" rx="57.5065" ry="18"/>
<text text-anchor="middle" x="473" y="-391.8" font-family="Times,serif" font-size="14.00">ftpd_use_cifs</text>
</g>
<!-- ftpd_t&#45;&#45;ftpd_use_cifs -->
<g id="edge3" class="edge"><title>ftpd_t&#45;&#45;ftpd_use_cifs</title>
<path fill="none" stroke="black" d="M228.715,-250.58C251.677,-279.317 303.003,-338.242 360,-369 378.218,-378.831 400.012,-385.126 419.513,-389.138"/>
<text text-anchor="middle" x="334" y="-361.8" font-family="Times,serif" font-size="14.00">off</text>
</g>
<!-- ftpd_use_fusefs -->
<g id="node5" class="node"><title>ftpd_use_fusefs</title>
<ellipse fill="none" stroke="black" cx="473" cy="-342" rx="66.208" ry="18"/>
<text text-anchor="middle" x="473" y="-337.8" font-family="Times,serif" font-size="14.00">ftpd_use_fusefs</text>
</g>
<!-- ftpd_t&#45;&#45;ftpd_use_fusefs -->
<g id="edge4" class="edge"><title>ftpd_t&#45;&#45;ftpd_use_fusefs</title>
<path fill="none" stroke="black" d="M236.095,-247.681C263.145,-265.53 313.282,-296.639 360,-315 378.243,-322.17 398.932,-327.807 417.52,-332.034"/>
<text text-anchor="middle" x="334" y="-309.8" font-family="Times,serif" font-size="14.00">off</text>
</g>
<!-- ftpd_connect_db -->
<g id="node6" class="node"><title>ftpd_connect_db</title>
<ellipse fill="none" stroke="black" cx="473" cy="-288" rx="69.5736" ry="18"/>
<text text-anchor="middle" x="473" y="-283.8" font-family="Times,serif" font-size="14.00">ftpd_connect_db</text>
</g>
<!-- ftpd_t&#45;&#45;ftpd_connect_db -->
<g id="edge5" class="edge"><title>ftpd_t&#45;&#45;ftpd_connect_db</title>
<path fill="none" stroke="black" d="M244.869,-240.09C286.844,-248.944 365.464,-265.528 418.282,-276.669"/>
<text text-anchor="middle" x="334" y="-262.8" font-family="Times,serif" font-size="14.00">off</text>
</g>
<!-- ftpd_full_access -->
<g id="node7" class="node"><title>ftpd_full_access</title>
<ellipse fill="none" stroke="black" cx="473" cy="-234" rx="68.1201" ry="18"/>
<text text-anchor="middle" x="473" y="-229.8" font-family="Times,serif" font-size="14.00">ftpd_full_access</text>
</g>
<!-- ftpd_t&#45;&#45;ftpd_full_access -->
<g id="edge6" class="edge"><title>ftpd_t&#45;&#45;ftpd_full_access</title>
<path fill="none" stroke="black" d="M246.372,-234C285.178,-234 353.46,-234 404.773,-234"/>
<text text-anchor="middle" x="334" y="-236.8" font-family="Times,serif" font-size="14.00">off</text>
</g>
<!-- ftpd_use_passive_mode -->
<g id="node12" class="node"><title>ftpd_use_passive_mode</title>
<ellipse fill="none" stroke="black" cx="473" cy="-180" rx="95.1741" ry="18"/>
<text text-anchor="middle" x="473" y="-175.8" font-family="Times,serif" font-size="14.00">ftpd_use_passive_mode</text>
</g>
<!-- ftpd_t&#45;&#45;ftpd_use_passive_mode -->
<g id="edge9" class="edge"><title>ftpd_t&#45;&#45;ftpd_use_passive_mode</title>
<path fill="none" stroke="black" d="M244.869,-227.91C284.425,-219.567 356.524,-204.358 408.905,-193.309"/>
<text text-anchor="middle" x="334" y="-213.8" font-family="Times,serif" font-size="14.00">off</text>
</g>
<!-- ftpd_use_nfs -->
<g id="node14" class="node"><title>ftpd_use_nfs</title>
<ellipse fill="none" stroke="black" cx="473" cy="-126" rx="55.5854" ry="18"/>
<text text-anchor="middle" x="473" y="-121.8" font-family="Times,serif" font-size="14.00">ftpd_use_nfs</text>
</g>
<!-- ftpd_t&#45;&#45;ftpd_use_nfs -->
<g id="edge11" class="edge"><title>ftpd_t&#45;&#45;ftpd_use_nfs</title>
<path fill="none" stroke="black" d="M236.095,-220.319C263.145,-202.47 313.282,-171.361 360,-153 380.291,-145.025 403.607,-138.947 423.694,-134.595"/>
<text text-anchor="middle" x="334" y="-170.8" font-family="Times,serif" font-size="14.00">off</text>
</g>
<!-- ftpd_connect_all_unreserved -->
<g id="node15" class="node"><title>ftpd_connect_all_unreserved</title>
<ellipse fill="none" stroke="black" cx="473" cy="-72" rx="112.997" ry="18"/>
<text text-anchor="middle" x="473" y="-67.8" font-family="Times,serif" font-size="14.00">ftpd_connect_all_unreserved</text>
</g>
<!-- ftpd_t&#45;&#45;ftpd_connect_all_unreserved -->
<g id="edge12" class="edge"><title>ftpd_t&#45;&#45;ftpd_connect_all_unreserved</title>
<path fill="none" stroke="black" d="M228.715,-217.42C251.677,-188.683 303.003,-129.758 360,-99 370.737,-93.2057 382.717,-88.6398 394.737,-85.0458"/>
<text text-anchor="middle" x="334" y="-122.8" font-family="Times,serif" font-size="14.00">off</text>
</g>
<!-- ftpd_anon_write -->
<g id="node18" class="node"><title>ftpd_anon_write</title>
<ellipse fill="none" stroke="black" cx="473" cy="-18" rx="68.6133" ry="18"/>
<text text-anchor="middle" x="473" y="-13.8" font-family="Times,serif" font-size="14.00">ftpd_anon_write</text>
</g>
<!-- ftpd_t&#45;&#45;ftpd_anon_write -->
<g id="edge15" class="edge"><title>ftpd_t&#45;&#45;ftpd_anon_write</title>
<path fill="none" stroke="black" d="M224.013,-216.735C242.371,-179.182 291.251,-89.8593 360,-45 374.825,-35.3268 392.784,-29.115 409.94,-25.1273"/>
<text text-anchor="middle" x="334" y="-71.8" font-family="Times,serif" font-size="14.00">off</text>
</g>
<!-- tftp_home_dir -->
<g id="node8" class="node"><title>tftp_home_dir</title>
<ellipse fill="none" stroke="black" cx="473" cy="-558" rx="60.9046" ry="18"/>
<text text-anchor="middle" x="473" y="-553.8" font-family="Times,serif" font-size="14.00">tftp_home_dir</text>
</g>
<!-- tftpd_t -->
<g id="node9" class="node"><title>tftpd_t</title>
<ellipse fill="none" stroke="black" cx="215" cy="-531" rx="33.877" ry="18"/>
<text text-anchor="middle" x="215" y="-526.8" font-family="Times,serif" font-size="14.00">tftpd_t</text>
</g>
<!-- tftpd_t&#45;&#45;tftp_home_dir -->
<g id="edge7" class="edge"><title>tftpd_t&#45;&#45;tftp_home_dir</title>
<path fill="none" stroke="black" d="M248.163,-534.392C290.062,-538.811 364.015,-546.611 415.399,-552.03"/>
<text text-anchor="middle" x="334" y="-545.8" font-family="Times,serif" font-size="14.00">off</text>
</g>
<!-- tftp_anon_write -->
<g id="node17" class="node"><title>tftp_anon_write</title>
<ellipse fill="none" stroke="black" cx="473" cy="-504" rx="66.6839" ry="18"/>
<text text-anchor="middle" x="473" y="-499.8" font-family="Times,serif" font-size="14.00">tftp_anon_write</text>
</g>
<!-- tftpd_t&#45;&#45;tftp_anon_write -->
<g id="edge14" class="edge"><title>tftpd_t&#45;&#45;tftp_anon_write</title>
<path fill="none" stroke="black" d="M248.163,-527.608C288.786,-523.323 359.542,-515.861 410.644,-510.471"/>
<text text-anchor="middle" x="334" y="-522.8" font-family="Times,serif" font-size="14.00">off</text>
</g>
<!-- sftpd_enable_homedirs -->
<g id="node10" class="node"><title>sftpd_enable_homedirs</title>
<ellipse fill="none" stroke="black" cx="215" cy="-747" rx="92.7515" ry="18"/>
<text text-anchor="middle" x="215" y="-742.8" font-family="Times,serif" font-size="14.00">sftpd_enable_homedirs</text>
</g>
<!-- sftpd_t -->
<g id="node11" class="node"><title>sftpd_t</title>
<ellipse fill="none" stroke="black" cx="35" cy="-666" rx="34.8458" ry="18"/>
<text text-anchor="middle" x="35" y="-661.8" font-family="Times,serif" font-size="14.00">sftpd_t</text>
</g>
<!-- sftpd_t&#45;&#45;sftpd_enable_homedirs -->
<g id="edge8" class="edge"><title>sftpd_t&#45;&#45;sftpd_enable_homedirs</title>
<path fill="none" stroke="black" d="M55.6208,-680.523C72.5055,-692.469 97.8868,-709.143 122,-720 132.928,-724.921 144.987,-729.209 156.675,-732.832"/>
<text text-anchor="middle" x="96" y="-712.8" font-family="Times,serif" font-size="14.00">off</text>
</g>
<!-- sftpd_write_ssh_home -->
<g id="node13" class="node"><title>sftpd_write_ssh_home</title>
<ellipse fill="none" stroke="black" cx="215" cy="-693" rx="90.3637" ry="18"/>
<text text-anchor="middle" x="215" y="-688.8" font-family="Times,serif" font-size="14.00">sftpd_write_ssh_home</text>
</g>
<!-- sftpd_t&#45;&#45;sftpd_write_ssh_home -->
<g id="edge10" class="edge"><title>sftpd_t&#45;&#45;sftpd_write_ssh_home</title>
<path fill="none" stroke="black" d="M68.6479,-670.952C89.4236,-674.104 117.159,-678.311 142.83,-682.205"/>
<text text-anchor="middle" x="96" y="-678.8" font-family="Times,serif" font-size="14.00">off</text>
</g>
<!-- sftpd_full_access -->
<g id="node16" class="node"><title>sftpd_full_access</title>
<ellipse fill="none" stroke="black" cx="215" cy="-639" rx="71.5031" ry="18"/>
<text text-anchor="middle" x="215" y="-634.8" font-family="Times,serif" font-size="14.00">sftpd_full_access</text>
</g>
<!-- sftpd_t&#45;&#45;sftpd_full_access -->
<g id="edge13" class="edge"><title>sftpd_t&#45;&#45;sftpd_full_access</title>
<path fill="none" stroke="black" d="M66.9918,-659.008C73.8873,-657.575 81.1761,-656.153 88,-655 107.786,-651.657 129.426,-648.669 149.103,-646.206"/>
<text text-anchor="middle" x="96" y="-657.8" font-family="Times,serif" font-size="14.00">off</text>
</g>
<!-- sftpd_anon_write -->
<g id="node19" class="node"><title>sftpd_anon_write</title>
<ellipse fill="none" stroke="black" cx="215" cy="-585" rx="71.9963" ry="18"/>
<text text-anchor="middle" x="215" y="-580.8" font-family="Times,serif" font-size="14.00">sftpd_anon_write</text>
</g>
<!-- sftpd_t&#45;&#45;sftpd_anon_write -->
<g id="edge16" class="edge"><title>sftpd_t&#45;&#45;sftpd_anon_write</title>
<path fill="none" stroke="black" d="M55.6208,-651.477C72.5055,-639.531 97.8868,-622.857 122,-612 134.75,-606.259 149.038,-601.379 162.482,-597.412"/>
<text text-anchor="middle" x="96" y="-630.8" font-family="Times,serif" font-size="14.00">off</text>
</g>
<!-- tftpd -->
<g id="node20" class="node"><title>tftpd</title>
<ellipse fill="none" stroke="black" cx="35" cy="-531" rx="27" ry="18"/>
<text text-anchor="middle" x="35" y="-526.8" font-family="Times,serif" font-size="14.00">tftpd</text>
</g>
<!-- tftpd&#45;&#45;tftpd_t -->
<g id="edge17" class="edge"><title>tftpd&#45;&#45;tftpd_t</title>
<path fill="none" stroke="black" d="M62.2645,-531C93.8875,-531 147.01,-531 181.271,-531"/>
</g>
</g>
</svg>
