<?xml version="1.0" encoding="UTF-8" standalone="no"?>
<!DOCTYPE svg PUBLIC "-//W3C//DTD SVG 1.1//EN"
 "http://www.w3.org/Graphics/SVG/1.1/DTD/svg11.dtd">
<!-- Generated by graphviz version 2.36.0 (20140111.2315)
 -->
<!-- Title: %3 Pages: 1 -->
<svg width="180pt" height="360pt"
 viewBox="0.00 0.00 180.00 360.00" xmlns="http://www.w3.org/2000/svg" xmlns:xlink="http://www.w3.org/1999/xlink">
<g id="graph0" class="graph" transform="scale(0.45 0.45) rotate(0) translate(4 796)">
<title>%3</title>
<polygon fill="white" stroke="none" points="-4,4 -4,-796 396,-796 396,4 -4,4"/>
<!-- vsftpd -->
<g id="node1" class="node"><title>vsftpd</title>
<ellipse fill="none" stroke="black" cx="57" cy="-180" rx="32.4324" ry="18"/>
<text text-anchor="middle" x="57" y="-175.8" font-family="Times,serif" font-size="14.00">vsftpd</text>
</g>
<!-- ftpd_t -->
<g id="node2" class="node"><title>ftpd_t</title>
<ellipse fill="none" stroke="black" cx="57" cy="-234" rx="31.4636" ry="18"/>
<text text-anchor="middle" x="57" y="-229.8" font-family="Times,serif" font-size="14.00">ftpd_t</text>
</g>
<!-- ftp_home_dir -->
<g id="node3" class="node"><title>ftp_home_dir</title>
<ellipse fill="none" stroke="black" cx="279" cy="-450" rx="58.491" ry="18"/>
<text text-anchor="middle" x="279" y="-445.8" font-family="Times,serif" font-size="14.00">ftp_home_dir</text>
</g>
<!-- ftpd_t&#45;&#45;ftp_home_dir -->
<g id="edge1" class="edge"><title>ftpd_t&#45;&#45;ftp_home_dir</title>
<path fill="none" stroke="black" d="M62.5298,-251.907C73.2613,-290.329 104.102,-380.619 166,-423 182.669,-434.413 203.618,-441.023 222.876,-444.843"/>
<text text-anchor="middle" x="140" y="-411.8" font-family="Times,serif" font-size="14.00">off</text>
</g>
<!-- ftpd_use_cifs -->
<g id="node4" class="node"><title>ftpd_use_cifs</title>
<ellipse fill="none" stroke="black" cx="279" cy="-396" rx="57.5065" ry="18"/>
<text text-anchor="middle" x="279" y="-391.8" font-family="Times,serif" font-size="14.00">ftpd_use_cifs</text>
</g>
<!-- ftpd_t&#45;&#45;ftpd_use_cifs -->
<g id="edge2" class="edge"><title>ftpd_t&#45;&#45;ftpd_use_cifs</title>
<path fill="none" stroke="black" d="M66.7328,-251.107C82.4575,-280.11 118.381,-338.726 166,-369 183.217,-379.946 204.494,-386.455 223.863,-390.326"/>
<text text-anchor="middle" x="140" y="-358.8" font-family="Times,serif" font-size="14.00">off</text>
</g>
<!-- ftpd_use_fusefs -->
<g id="node5" class="node"><title>ftpd_use_fusefs</title>
<ellipse fill="none" stroke="black" cx="279" cy="-342" rx="66.208" ry="18"/>
<text text-anchor="middle" x="279" y="-337.8" font-family="Times,serif" font-size="14.00">ftpd_use_fusefs</text>
</g>
<!-- ftpd_t&#45;&#45;ftpd_use_fusefs -->
<g id="edge3" class="edge"><title>ftpd_t&#45;&#45;ftpd_use_fusefs</title>
<path fill="none" stroke="black" d="M73.8202,-249.213C93.7332,-267.522 129.74,-297.928 166,-315 183.282,-323.137 203.256,-328.96 221.509,-333.064"/>
<text text-anchor="middle" x="140" y="-307.8" font-family="Times,serif" font-size="14.00">off</text>
</g>
<!-- ftpd_connect_db -->
<g id="node6" class="node"><title>ftpd_connect_db</title>
<ellipse fill="none" stroke="black" cx="279" cy="-288" rx="69.5736" ry="18"/>
<text text-anchor="middle" x="279" y="-283.8" font-family="Times,serif" font-size="14.00">ftpd_connect_db</text>
</g>
<!-- ftpd_t&#45;&#45;ftpd_connect_db -->
<g id="edge4" class="edge"><title>ftpd_t&#45;&#45;ftpd_connect_db</title>
<path fill="none" stroke="black" d="M85.9554,-241.057C107.751,-246.543 138.784,-254.318 166,-261 186.007,-265.912 208.046,-271.243 227.242,-275.859"/>
<text text-anchor="middle" x="140" y="-258.8" font-family="Times,serif" font-size="14.00">off</text>
</g>
<!-- ftpd_full_access -->
<g id="node7" class="node"><title>ftpd_full_access</title>
<ellipse fill="none" stroke="black" cx="279" cy="-234" rx="68.1201" ry="18"/>
<text text-anchor="middle" x="279" y="-229.8" font-family="Times,serif" font-size="14.00">ftpd_full_access</text>
</g>
<!-- ftpd_t&#45;&#45;ftpd_full_access -->
<g id="edge5" class="edge"><title>ftpd_t&#45;&#45;ftpd_full_access</title>
<path fill="none" stroke="black" d="M88.5901,-234C119.996,-234 169.893,-234 210.591,-234"/>
<text text-anchor="middle" x="140" y="-236.8" font-family="Times,serif" font-size="14.00">off</text>
</g>
<!-- ftpd_use_passive_mode -->
<g id="node12" class="node"><title>ftpd_use_passive_mode</title>
<ellipse fill="none" stroke="black" cx="279" cy="-180" rx="95.1741" ry="18"/>
<text text-anchor="middle" x="279" y="-175.8" font-family="Times,serif" font-size="14.00">ftpd_use_passive_mode</text>
</g>
<!-- ftpd_t&#45;&#45;ftpd_use_passive_mode -->
<g id="edge8" class="edge"><title>ftpd_t&#45;&#45;ftpd_use_passive_mode</title>
<path fill="none" stroke="black" d="M85.9554,-226.943C107.751,-221.457 138.784,-213.682 166,-207 183.288,-202.755 202.092,-198.199 219.269,-194.06"/>
<text text-anchor="middle" x="140" y="-218.8" font-family="Times,serif" font-size="14.00">off</text>
</g>
<!-- ftpd_use_nfs -->
<g id="node14" class="node"><title>ftpd_use_nfs</title>
<ellipse fill="none" stroke="black" cx="279" cy="-126" rx="55.5854" ry="18"/>
<text text-anchor="middle" x="279" y="-121.8" font-family="Times,serif" font-size="14.00">ftpd_use_nfs</text>
</g>
<!-- ftpd_t&#45;&#45;ftpd_use_nfs -->
<g id="edge10" class="edge"><title>ftpd_t&#45;&#45;ftpd_use_nfs</title>
<path fill="none" stroke="black" d="M83.3228,-224.091C93.3286,-219.602 104.646,-213.774 114,-207 140.986,-187.458 137.092,-169.567 166,-153 184.308,-142.508 206.548,-136.078 226.369,-132.144"/>
<text text-anchor="middle" x="140" y="-191.8" font-family="Times,serif" font-size="14.00">off</text>
</g>
<!-- ftpd_connect_all_unreserved -->
<g id="node15" class="node"><title>ftpd_connect_all_unreserved</title>
<ellipse fill="none" stroke="black" cx="279" cy="-72" rx="112.997" ry="18"/>
<text text-anchor="middle" x="279" y="-67.8" font-family="Times,serif" font-size="14.00">ftpd_connect_all_unreserved</text>
</g>
<!-- ftpd_t&#45;&#45;ftpd_connect_all_unreserved -->
<g id="edge11" class="edge"><title>ftpd_t&#45;&#45;ftpd_connect_all_unreserved</title>
<path fill="none" stroke="black" d="M85.1227,-226.06C95.3903,-221.857 106.417,-215.711 114,-207 131.165,-187.281 120.746,-174.597 132,-151 143.887,-126.077 143.433,-114.912 166,-99 174.909,-92.7183 185.101,-87.8876 195.625,-84.1747"/>
<text text-anchor="middle" x="140" y="-153.8" font-family="Times,serif" font-size="14.00">off</text>
</g>
<!-- ftpd_anon_write -->
<g id="node18" class="node"><title>ftpd_anon_write</title>
<ellipse fill="none" stroke="black" cx="279" cy="-18" rx="68.6133" ry="18"/>
<text text-anchor="middle" x="279" y="-13.8" font-family="Times,serif" font-size="14.00">ftpd_anon_write</text>
</g>
<!-- ftpd_t&#45;&#45;ftpd_anon_write -->
<g id="edge14" class="edge"><title>ftpd_t&#45;&#45;ftpd_anon_write</title>
<path fill="none" stroke="black" d="M85.7811,-226.593C96.1444,-222.467 107.065,-216.235 114,-207 142.957,-168.438 115.004,-145.13 132,-100 142.128,-73.1059 142.725,-61.8573 166,-45 180.174,-34.734 197.743,-28.3315 214.731,-24.3507"/>
<text text-anchor="middle" x="140" y="-102.8" font-family="Times,serif" font-size="14.00">off</text>
</g>
<!-- tftp_home_dir -->
<g id="node8" class="node"><title>tftp_home_dir</title>
<ellipse fill="none" stroke="black" cx="279" cy="-558" rx="60.9046" ry="18"/>
<text text-anchor="middle" x="279" y="-553.8" font-family="Times,serif" font-size="14.00">tftp_home_dir</text>
</g>
<!-- tftpd_t -->
<g id="node9" class="node"><title>tftpd_t</title>
<ellipse fill="none" stroke="black" cx="57" cy="-531" rx="33.877" ry="18"/>
<text text-anchor="middle" x="57" y="-526.8" font-family="Times,serif" font-size="14.00">tftpd_t</text>
</g>
<!-- tftpd_t&#45;&#45;tftp_home_dir -->
<g id="edge6" class="edge"><title>tftpd_t&#45;&#45;tftp_home_dir</title>
<path fill="none" stroke="black" d="M89.9899,-534.926C124.669,-539.182 180.661,-546.054 222.537,-551.193"/>
<text text-anchor="middle" x="140" y="-544.8" font-family="Times,serif" font-size="14.00">off</text>
</g>
<!-- tftp_anon_write -->
<g id="node17" class="node"><title>tftp_anon_write</title>
<ellipse fill="none" stroke="black" cx="279" cy="-504" rx="66.6839" ry="18"/>
<text text-anchor="middle" x="279" y="-499.8" font-family="Times,serif" font-size="14.00">tftp_anon_write</text>
</g>
<!-- tftpd_t&#45;&#45;tftp_anon_write -->
<g id="edge13" class="edge"><title>tftpd_t&#45;&#45;tftp_anon_write</title>
<path fill="none" stroke="black" d="M89.9899,-527.074C123.477,-522.964 176.838,-516.415 218.171,-511.343"/>
<text text-anchor="middle" x="140" y="-524.8" font-family="Times,serif" font-size="14.00">off</text>
</g>
<!-- sftpd_enable_homedirs -->
<g id="node10" class="node"><title>sftpd_enable_homedirs</title>
<ellipse fill="none" stroke="black" cx="279" cy="-720" rx="92.7515" ry="18"/>
<text text-anchor="middle" x="279" y="-715.8" font-family="Times,serif" font-size="14.00">sftpd_enable_homedirs</text>
</g>
<!-- sftpd_t -->
<g id="node11" class="node"><title>sftpd_t</title>
<ellipse fill="none" stroke="black" cx="57" cy="-666" rx="34.8458" ry="18"/>
<text text-anchor="middle" x="57" y="-661.8" font-family="Times,serif" font-size="14.00">sftpd_t</text>
</g>
<!-- sftpd_t&#45;&#45;sftpd_enable_homedirs -->
<g id="edge7" class="edge"><title>sftpd_t&#45;&#45;sftpd_enable_homedirs</title>
<path fill="none" stroke="black" d="M88.7075,-673.75C110.312,-679.185 139.91,-686.594 166,-693 183.482,-697.292 202.515,-701.904 219.847,-706.079"/>
<text text-anchor="middle" x="140" y="-689.8" font-family="Times,serif" font-size="14.00">off</text>
</g>
<!-- sftpd_write_ssh_home -->
<g id="node13" class="node"><title>sftpd_write_ssh_home</title>
<ellipse fill="none" stroke="black" cx="279" cy="-666" rx="90.3637" ry="18"/>
<text text-anchor="middle" x="279" y="-661.8" font-family="Times,serif" font-size="14.00">sftpd_write_ssh_home</text>
</g>
<!-- sftpd_t&#45;&#45;sftpd_write_ssh_home -->
<g id="edge9" class="edge"><title>sftpd_t&#45;&#45;sftpd_write_ssh_home</title>
<path fill="none" stroke="black" d="M91.8929,-666C117.686,-666 154.431,-666 188.466,-666"/>
<text text-anchor="middle" x="140" y="-668.8" font-family="Times,serif" font-size="14.00">off</text>
</g>
<!-- sftpd_full_access -->
<g id="node16" class="node"><title>sftpd_full_access</title>
<ellipse fill="none" stroke="black" cx="279" cy="-612" rx="71.5031" ry="18"/>
<text text-anchor="middle" x="279" y="-607.8" font-family="Times,serif" font-size="14.00">sftpd_full_access</text>
</g>
<!-- sftpd_t&#45;&#45;sftpd_full_access -->
<g id="edge12" class="edge"><title>sftpd_t&#45;&#45;sftpd_full_access</title>
<path fill="none" stroke="black" d="M88.7075,-658.25C110.312,-652.815 139.91,-645.406 166,-639 185.813,-634.135 207.618,-628.861 226.682,-624.275"/>
<text text-anchor="middle" x="140" y="-649.8" font-family="Times,serif" font-size="14.00">off</text>
</g>
<!-- sftpd_anon_write -->
<g id="node19" class="node"><title>sftpd_anon_write</title>
<ellipse fill="none" stroke="black" cx="279" cy="-774" rx="71.9963" ry="18"/>
<text text-anchor="middle" x="279" y="-769.8" font-family="Times,serif" font-size="14.00">sftpd_anon_write</text>
</g>
<!-- anon_sftpd_t -->
<g id="node20" class="node"><title>anon_sftpd_t</title>
<ellipse fill="none" stroke="black" cx="57" cy="-774" rx="56.07" ry="18"/>
<text text-anchor="middle" x="57" y="-769.8" font-family="Times,serif" font-size="14.00">anon_sftpd_t</text>
</g>
<!-- anon_sftpd_t&#45;&#45;sftpd_anon_write -->
<g id="edge15" class="edge"><title>anon_sftpd_t&#45;&#45;sftpd_anon_write</title>
<path fill="none" stroke="black" d="M113.515,-774C141.774,-774 176.451,-774 206.667,-774"/>
<text text-anchor="middle" x="140" y="-776.8" font-family="Times,serif" font-size="14.00">off</text>
</g>
</g>
</svg>
