<?xml version="1.0" encoding="UTF-8" standalone="no"?>
<!DOCTYPE svg PUBLIC "-//W3C//DTD SVG 1.1//EN"
 "http://www.w3.org/Graphics/SVG/1.1/DTD/svg11.dtd">
<!-- Generated by graphviz version 2.36.0 (20140111.2315)
 -->
<!-- Title: %3 Pages: 1 -->
<svg width="277pt" height="360pt"
 viewBox="0.00 0.00 276.64 360.00" xmlns="http://www.w3.org/2000/svg" xmlns:xlink="http://www.w3.org/1999/xlink">
<g id="graph0" class="graph" transform="scale(0.465718 0.465718) rotate(0) translate(4 769)">
<title>%3</title>
<polygon fill="white" stroke="none" points="-4,4 -4,-769 590,-769 590,4 -4,4"/>
<!-- vsftpd -->
<g id="node1" class="node"><title>vsftpd</title>
<ellipse fill="none" stroke="black" cx="35" cy="-309" rx="32.4324" ry="18"/>
<text text-anchor="middle" x="35" y="-304.8" font-family="Times,serif" font-size="14.00">vsftpd</text>
</g>
<!-- ftpd_t -->
<g id="node2" class="node"><title>ftpd_t</title>
<ellipse fill="none" stroke="black" cx="215" cy="-309" rx="31.4636" ry="18"/>
<text text-anchor="middle" x="215" y="-304.8" font-family="Times,serif" font-size="14.00">ftpd_t</text>
</g>
<!-- vsftpd&#45;&#45;ftpd_t -->
<g id="edge1" class="edge"><title>vsftpd&#45;&#45;ftpd_t</title>
<path fill="none" stroke="black" d="M66.1953,-303.783C99.324,-301.717 152.129,-301.739 184.84,-303.849"/>
</g>
<!-- vsftpd&#45;&#45;ftpd_t -->
<g id="edge17" class="edge"><title>vsftpd&#45;&#45;ftpd_t</title>
<path fill="none" stroke="black" d="M66.1953,-314.217C99.324,-316.283 152.129,-316.261 184.84,-314.151"/>
</g>
<!-- ftp_home_dir -->
<g id="node3" class="node"><title>ftp_home_dir</title>
<ellipse fill="none" stroke="black" cx="473" cy="-605" rx="58.491" ry="18"/>
<text text-anchor="middle" x="473" y="-600.8" font-family="Times,serif" font-size="14.00">ftp_home_dir</text>
</g>
<!-- ftpd_t&#45;&#45;ftp_home_dir -->
<g id="edge2" class="edge"><title>ftpd_t&#45;&#45;ftp_home_dir</title>
<path fill="none" stroke="black" d="M246.227,-310.756C267.047,-313.692 293.482,-321.185 308,-340 343.652,-386.204 283.754,-561.737 326,-602 353.345,-628.062 398.318,-624.802 431.135,-617.525"/>
<text text-anchor="middle" x="334" y="-614.8" font-family="Times,serif" font-size="14.00">off</text>
</g>
<!-- ftpd_t&#45;&#45;ftp_home_dir -->
<g id="edge18" class="edge"><title>ftpd_t&#45;&#45;ftp_home_dir</title>
<path fill="none" stroke="black" d="M246.145,-310.821C266.925,-313.787 293.346,-321.291 308,-340 337.701,-377.919 296.276,-518.099 326,-556 347.367,-583.245 384.477,-595.464 415.935,-600.888"/>
<text text-anchor="middle" x="334" y="-572.8" font-family="Times,serif" font-size="14.00">off</text>
</g>
<!-- ftpd_use_cifs -->
<g id="node4" class="node"><title>ftpd_use_cifs</title>
<ellipse fill="none" stroke="black" cx="473" cy="-531" rx="57.5065" ry="18"/>
<text text-anchor="middle" x="473" y="-526.8" font-family="Times,serif" font-size="14.00">ftpd_use_cifs</text>
</g>
<!-- ftpd_t&#45;&#45;ftpd_use_cifs -->
<g id="edge3" class="edge"><title>ftpd_t&#45;&#45;ftpd_use_cifs</title>
<path fill="none" stroke="black" d="M246.075,-310.875C266.822,-313.868 293.231,-321.382 308,-340 334.082,-372.88 295.233,-499.456 326,-528 353.6,-553.606 398.307,-550.515 430.988,-543.403"/>
<text text-anchor="middle" x="334" y="-540.8" font-family="Times,serif" font-size="14.00">off</text>
</g>
<!-- ftpd_t&#45;&#45;ftpd_use_cifs -->
<g id="edge19" class="edge"><title>ftpd_t&#45;&#45;ftpd_use_cifs</title>
<path fill="none" stroke="black" d="M246.344,-311.079C266.941,-314.181 293.054,-321.74 308,-340 348.294,-389.228 285.676,-432.797 326,-482 348.032,-508.883 385.337,-521.099 416.722,-526.611"/>
<text text-anchor="middle" x="334" y="-498.8" font-family="Times,serif" font-size="14.00">off</text>
</g>
<!-- ftpd_use_fusefs -->
<g id="node5" class="node"><title>ftpd_use_fusefs</title>
<ellipse fill="none" stroke="black" cx="473" cy="-457" rx="66.208" ry="18"/>
<text text-anchor="middle" x="473" y="-452.8" font-family="Times,serif" font-size="14.00">ftpd_use_fusefs</text>
</g>
<!-- ftpd_t&#45;&#45;ftpd_use_fusefs -->
<g id="edge4" class="edge"><title>ftpd_t&#45;&#45;ftpd_use_fusefs</title>
<path fill="none" stroke="black" d="M246.173,-311.221C266.69,-314.39 292.777,-321.971 308,-340 341.092,-379.193 287.348,-420.279 326,-454 353.032,-477.584 394.786,-476.013 426.729,-469.89"/>
<text text-anchor="middle" x="334" y="-466.8" font-family="Times,serif" font-size="14.00">off</text>
</g>
<!-- ftpd_t&#45;&#45;ftpd_use_fusefs -->
<g id="edge20" class="edge"><title>ftpd_t&#45;&#45;ftpd_use_fusefs</title>
<path fill="none" stroke="black" d="M245.993,-311.845C266.156,-315.309 291.895,-322.986 308,-340 328.607,-361.77 305.58,-383.054 326,-405 348.636,-429.328 383.411,-442.285 413.344,-449.181"/>
<text text-anchor="middle" x="334" y="-420.8" font-family="Times,serif" font-size="14.00">off</text>
</g>
<!-- ftpd_connect_db -->
<g id="node6" class="node"><title>ftpd_connect_db</title>
<ellipse fill="none" stroke="black" cx="473" cy="-383" rx="69.5736" ry="18"/>
<text text-anchor="middle" x="473" y="-378.8" font-family="Times,serif" font-size="14.00">ftpd_connect_db</text>
</g>
<!-- ftpd_t&#45;&#45;ftpd_connect_db -->
<g id="edge5" class="edge"><title>ftpd_t&#45;&#45;ftpd_connect_db</title>
<path fill="none" stroke="black" d="M245.637,-312.729C265.381,-316.589 290.769,-324.377 308,-340 322.443,-353.094 309.739,-369.247 326,-380 353.386,-398.109 390.425,-398.664 420.344,-394.792"/>
<text text-anchor="middle" x="334" y="-389.8" font-family="Times,serif" font-size="14.00">off</text>
</g>
<!-- ftpd_t&#45;&#45;ftpd_connect_db -->
<g id="edge21" class="edge"><title>ftpd_t&#45;&#45;ftpd_connect_db</title>
<path fill="none" stroke="black" d="M243.396,-316.919C286.994,-329.522 372.656,-354.283 425.844,-369.658"/>
<text text-anchor="middle" x="334" y="-346.8" font-family="Times,serif" font-size="14.00">off</text>
</g>
<!-- ftpd_full_access -->
<g id="node7" class="node"><title>ftpd_full_access</title>
<ellipse fill="none" stroke="black" cx="473" cy="-309" rx="68.1201" ry="18"/>
<text text-anchor="middle" x="473" y="-304.8" font-family="Times,serif" font-size="14.00">ftpd_full_access</text>
</g>
<!-- ftpd_t&#45;&#45;ftpd_full_access -->
<g id="edge6" class="edge"><title>ftpd_t&#45;&#45;ftpd_full_access</title>
<path fill="none" stroke="black" d="M246.372,-309C285.178,-309 353.46,-309 404.773,-309"/>
<text text-anchor="middle" x="334" y="-311.8" font-family="Times,serif" font-size="14.00">off</text>
</g>
<!-- ftpd_t&#45;&#45;ftpd_full_access -->
<g id="edge22" class="edge"><title>ftpd_t&#45;&#45;ftpd_full_access</title>
<path fill="none" stroke="black" d="M244.793,-302.975C266.893,-298.671 298.226,-293.257 326,-291 357.437,-288.445 392.521,-292.544 420.417,-297.472"/>
<text text-anchor="middle" x="334" y="-293.8" font-family="Times,serif" font-size="14.00">off</text>
</g>
<!-- ftpd_use_passive_mode -->
<g id="node12" class="node"><title>ftpd_use_passive_mode</title>
<ellipse fill="none" stroke="black" cx="473" cy="-235" rx="95.1741" ry="18"/>
<text text-anchor="middle" x="473" y="-230.8" font-family="Times,serif" font-size="14.00">ftpd_use_passive_mode</text>
</g>
<!-- ftpd_t&#45;&#45;ftpd_use_passive_mode -->
<g id="edge9" class="edge"><title>ftpd_t&#45;&#45;ftpd_use_passive_mode</title>
<path fill="none" stroke="black" d="M242.085,-299.96C264.284,-292.388 297.079,-281.488 326,-273 354.902,-264.518 387.299,-255.989 414.22,-249.166"/>
<text text-anchor="middle" x="334" y="-275.8" font-family="Times,serif" font-size="14.00">off</text>
</g>
<!-- ftpd_t&#45;&#45;ftpd_use_passive_mode -->
<g id="edge25" class="edge"><title>ftpd_t&#45;&#45;ftpd_use_passive_mode</title>
<path fill="none" stroke="black" d="M236.075,-295.426C257.392,-281.748 292.559,-261.242 326,-251 343.433,-245.661 362.516,-242.056 380.969,-239.634"/>
<text text-anchor="middle" x="334" y="-253.8" font-family="Times,serif" font-size="14.00">off</text>
</g>
<!-- ftpd_use_nfs -->
<g id="node14" class="node"><title>ftpd_use_nfs</title>
<ellipse fill="none" stroke="black" cx="473" cy="-161" rx="55.5854" ry="18"/>
<text text-anchor="middle" x="473" y="-156.8" font-family="Times,serif" font-size="14.00">ftpd_use_nfs</text>
</g>
<!-- ftpd_t&#45;&#45;ftpd_use_nfs -->
<g id="edge11" class="edge"><title>ftpd_t&#45;&#45;ftpd_use_nfs</title>
<path fill="none" stroke="black" d="M233.617,-294.231C259.791,-272.867 311.127,-233.153 360,-208 384.656,-195.311 413.534,-183.256 435.791,-174.533"/>
<text text-anchor="middle" x="334" y="-230.8" font-family="Times,serif" font-size="14.00">off</text>
</g>
<!-- ftpd_t&#45;&#45;ftpd_use_nfs -->
<g id="edge27" class="edge"><title>ftpd_t&#45;&#45;ftpd_use_nfs</title>
<path fill="none" stroke="black" d="M228.341,-292.638C246.946,-269.113 284.447,-225.939 326,-202 355.656,-184.914 392.843,-174.609 422.263,-168.603"/>
<text text-anchor="middle" x="334" y="-204.8" font-family="Times,serif" font-size="14.00">off</text>
</g>
<!-- ftpd_connect_all_unreserved -->
<g id="node15" class="node"><title>ftpd_connect_all_unreserved</title>
<ellipse fill="none" stroke="black" cx="473" cy="-82" rx="112.997" ry="18"/>
<text text-anchor="middle" x="473" y="-77.8" font-family="Times,serif" font-size="14.00">ftpd_connect_all_unreserved</text>
</g>
<!-- ftpd_t&#45;&#45;ftpd_connect_all_unreserved -->
<g id="edge12" class="edge"><title>ftpd_t&#45;&#45;ftpd_connect_all_unreserved</title>
<path fill="none" stroke="black" d="M226.295,-291.924C247.53,-257.911 299.317,-180.948 360,-134 379.415,-118.98 403.867,-106.993 424.968,-98.3313"/>
<text text-anchor="middle" x="334" y="-165.8" font-family="Times,serif" font-size="14.00">off</text>
</g>
<!-- ftpd_t&#45;&#45;ftpd_connect_all_unreserved -->
<g id="edge28" class="edge"><title>ftpd_t&#45;&#45;ftpd_connect_all_unreserved</title>
<path fill="none" stroke="black" d="M222.255,-291.397C235.693,-256.047 270.662,-176.053 326,-132 347.485,-114.896 375.171,-103.473 400.648,-95.9235"/>
<text text-anchor="middle" x="334" y="-134.8" font-family="Times,serif" font-size="14.00">off</text>
</g>
<!-- ftpd_anon_write -->
<g id="node18" class="node"><title>ftpd_anon_write</title>
<ellipse fill="none" stroke="black" cx="473" cy="-18" rx="68.6133" ry="18"/>
<text text-anchor="middle" x="473" y="-13.8" font-family="Times,serif" font-size="14.00">ftpd_anon_write</text>
</g>
<!-- ftpd_t&#45;&#45;ftpd_anon_write -->
<g id="edge15" class="edge"><title>ftpd_t&#45;&#45;ftpd_anon_write</title>
<path fill="none" stroke="black" d="M220.697,-291.254C233.989,-244.65 276.438,-118.044 360,-55 376.593,-42.4817 397.634,-34.0736 416.988,-28.4843"/>
<text text-anchor="middle" x="334" y="-84.8" font-family="Times,serif" font-size="14.00">off</text>
</g>
<!-- ftpd_t&#45;&#45;ftpd_anon_write -->
<g id="edge31" class="edge"><title>ftpd_t&#45;&#45;ftpd_anon_write</title>
<path fill="none" stroke="black" d="M218.516,-291.014C225.93,-244.959 252.019,-121.922 326,-58 348.472,-38.5838 379.552,-28.5149 407.262,-23.3244"/>
<text text-anchor="middle" x="334" y="-60.8" font-family="Times,serif" font-size="14.00">off</text>
</g>
<!-- tftp_home_dir -->
<g id="node8" class="node"><title>tftp_home_dir</title>
<ellipse fill="none" stroke="black" cx="215" cy="-451" rx="60.9046" ry="18"/>
<text text-anchor="middle" x="215" y="-446.8" font-family="Times,serif" font-size="14.00">tftp_home_dir</text>
</g>
<!-- tftpd_t -->
<g id="node9" class="node"><title>tftpd_t</title>
<ellipse fill="none" stroke="black" cx="35" cy="-414" rx="33.877" ry="18"/>
<text text-anchor="middle" x="35" y="-409.8" font-family="Times,serif" font-size="14.00">tftpd_t</text>
</g>
<!-- tftpd_t&#45;&#45;tftp_home_dir -->
<g id="edge7" class="edge"><title>tftpd_t&#45;&#45;tftp_home_dir</title>
<path fill="none" stroke="black" d="M53.9695,-429.338C63.4418,-436.446 75.6401,-444.157 88,-448 109.835,-454.789 134.839,-456.535 156.787,-456.224"/>
<text text-anchor="middle" x="96" y="-453.8" font-family="Times,serif" font-size="14.00">off</text>
</g>
<!-- tftpd_t&#45;&#45;tftp_home_dir -->
<g id="edge23" class="edge"><title>tftpd_t&#45;&#45;tftp_home_dir</title>
<path fill="none" stroke="black" d="M66.5993,-420.361C93.5367,-425.96 133.253,-434.216 164.675,-440.747"/>
<text text-anchor="middle" x="96" y="-430.8" font-family="Times,serif" font-size="14.00">off</text>
</g>
<!-- tftp_anon_write -->
<g id="node17" class="node"><title>tftp_anon_write</title>
<ellipse fill="none" stroke="black" cx="215" cy="-367" rx="66.6839" ry="18"/>
<text text-anchor="middle" x="215" y="-362.8" font-family="Times,serif" font-size="14.00">tftp_anon_write</text>
</g>
<!-- tftpd_t&#45;&#45;tftp_anon_write -->
<g id="edge14" class="edge"><title>tftpd_t&#45;&#45;tftp_anon_write</title>
<path fill="none" stroke="black" d="M65.7932,-406.133C93.3066,-398.868 134.636,-387.956 166.666,-379.498"/>
<text text-anchor="middle" x="96" y="-402.8" font-family="Times,serif" font-size="14.00">off</text>
</g>
<!-- tftpd_t&#45;&#45;tftp_anon_write -->
<g id="edge30" class="edge"><title>tftpd_t&#45;&#45;tftp_anon_write</title>
<path fill="none" stroke="black" d="M53.4697,-398.473C62.9991,-390.936 75.3995,-382.547 88,-378 106.899,-371.18 128.385,-367.83 148.194,-366.341"/>
<text text-anchor="middle" x="96" y="-380.8" font-family="Times,serif" font-size="14.00">off</text>
</g>
<!-- sftpd_enable_homedirs -->
<g id="node10" class="node"><title>sftpd_enable_homedirs</title>
<ellipse fill="none" stroke="black" cx="215" cy="-747" rx="92.7515" ry="18"/>
<text text-anchor="middle" x="215" y="-742.8" font-family="Times,serif" font-size="14.00">sftpd_enable_homedirs</text>
</g>
<!-- sftpd_t -->
<g id="node11" class="node"><title>sftpd_t</title>
<ellipse fill="none" stroke="black" cx="35" cy="-636" rx="34.8458" ry="18"/>
<text text-anchor="middle" x="35" y="-631.8" font-family="Times,serif" font-size="14.00">sftpd_t</text>
</g>
<!-- sftpd_t&#45;&#45;sftpd_enable_homedirs -->
<g id="edge8" class="edge"><title>sftpd_t&#45;&#45;sftpd_enable_homedirs</title>
<path fill="none" stroke="black" d="M38.7877,-653.954C43.7469,-679.05 56.6982,-723.807 88,-744 103.997,-754.32 123.673,-757.972 142.68,-758.296"/>
<text text-anchor="middle" x="96" y="-753.8" font-family="Times,serif" font-size="14.00">off</text>
</g>
<!-- sftpd_t&#45;&#45;sftpd_enable_homedirs -->
<g id="edge24" class="edge"><title>sftpd_t&#45;&#45;sftpd_enable_homedirs</title>
<path fill="none" stroke="black" d="M48.6898,-652.594C58.4348,-664.478 72.7681,-680.222 88,-691 112.328,-708.215 142.794,-721.931 167.674,-731.479"/>
<text text-anchor="middle" x="96" y="-703.8" font-family="Times,serif" font-size="14.00">off</text>
</g>
<!-- sftpd_write_ssh_home -->
<g id="node13" class="node"><title>sftpd_write_ssh_home</title>
<ellipse fill="none" stroke="black" cx="215" cy="-673" rx="90.3637" ry="18"/>
<text text-anchor="middle" x="215" y="-668.8" font-family="Times,serif" font-size="14.00">sftpd_write_ssh_home</text>
</g>
<!-- sftpd_t&#45;&#45;sftpd_write_ssh_home -->
<g id="edge10" class="edge"><title>sftpd_t&#45;&#45;sftpd_write_ssh_home</title>
<path fill="none" stroke="black" d="M53.9695,-651.338C63.4418,-658.446 75.6401,-666.157 88,-670 100.432,-673.865 113.892,-676.096 127.23,-677.243"/>
<text text-anchor="middle" x="96" y="-675.8" font-family="Times,serif" font-size="14.00">off</text>
</g>
<!-- sftpd_t&#45;&#45;sftpd_write_ssh_home -->
<g id="edge26" class="edge"><title>sftpd_t&#45;&#45;sftpd_write_ssh_home</title>
<path fill="none" stroke="black" d="M67.4131,-642.53C90.7675,-647.384 123.393,-654.166 151.938,-660.099"/>
<text text-anchor="middle" x="96" y="-652.8" font-family="Times,serif" font-size="14.00">off</text>
</g>
<!-- sftpd_full_access -->
<g id="node16" class="node"><title>sftpd_full_access</title>
<ellipse fill="none" stroke="black" cx="215" cy="-594" rx="71.5031" ry="18"/>
<text text-anchor="middle" x="215" y="-589.8" font-family="Times,serif" font-size="14.00">sftpd_full_access</text>
</g>
<!-- sftpd_t&#45;&#45;sftpd_full_access -->
<g id="edge13" class="edge"><title>sftpd_t&#45;&#45;sftpd_full_access</title>
<path fill="none" stroke="black" d="M67.0052,-628.684C93.2016,-622.503 131.271,-613.52 162.104,-606.245"/>
<text text-anchor="middle" x="96" y="-625.8" font-family="Times,serif" font-size="14.00">off</text>
</g>
<!-- sftpd_t&#45;&#45;sftpd_full_access -->
<g id="edge29" class="edge"><title>sftpd_t&#45;&#45;sftpd_full_access</title>
<path fill="none" stroke="black" d="M53.4818,-620.744C63.0145,-613.373 75.4143,-605.226 88,-601 105.654,-595.072 125.475,-592.309 144.078,-591.262"/>
<text text-anchor="middle" x="96" y="-603.8" font-family="Times,serif" font-size="14.00">off</text>
</g>
<!-- sftpd_anon_write -->
<g id="node19" class="node"><title>sftpd_anon_write</title>
<ellipse fill="none" stroke="black" cx="215" cy="-530" rx="71.9963" ry="18"/>
<text text-anchor="middle" x="215" y="-525.8" font-family="Times,serif" font-size="14.00">sftpd_anon_write</text>
</g>
<!-- sftpd_t&#45;&#45;sftpd_anon_write -->
<g id="edge16" class="edge"><title>sftpd_t&#45;&#45;sftpd_anon_write</title>
<path fill="none" stroke="black" d="M48.0156,-619.08C57.6272,-606.58 72.0918,-589.908 88,-579 111.422,-562.939 140.852,-551.114 165.378,-543.109"/>
<text text-anchor="middle" x="96" y="-581.8" font-family="Times,serif" font-size="14.00">off</text>
</g>
<!-- sftpd_t&#45;&#45;sftpd_anon_write -->
<g id="edge32" class="edge"><title>sftpd_t&#45;&#45;sftpd_anon_write</title>
<path fill="none" stroke="black" d="M41.8007,-618.181C49.2185,-598.406 64.0499,-567.156 88,-551 104.087,-540.148 123.897,-534.261 143.005,-531.213"/>
<text text-anchor="middle" x="96" y="-553.8" font-family="Times,serif" font-size="14.00">off</text>
</g>
</g>
</svg>
