<?xml version="1.0" encoding="UTF-8" standalone="no"?>
<!DOCTYPE svg PUBLIC "-//W3C//DTD SVG 1.1//EN"
 "http://www.w3.org/Graphics/SVG/1.1/DTD/svg11.dtd">
<!-- Generated by graphviz version 2.36.0 (20140111.2315)
 -->
<!-- Title: %3 Pages: 1 -->
<svg width="366pt" height="360pt"
 viewBox="0.00 0.00 366.16 360.00" xmlns="http://www.w3.org/2000/svg" xmlns:xlink="http://www.w3.org/1999/xlink">
<g id="graph0" class="graph" transform="scale(0.616438 0.616438) rotate(0) translate(4 580)">
<title>%3</title>
<polygon fill="white" stroke="none" points="-4,4 -4,-580 590,-580 590,4 -4,4"/>
<!-- vsftpd -->
<g id="node1" class="node"><title>vsftpd</title>
<ellipse fill="none" stroke="black" cx="35" cy="-234" rx="32.4324" ry="18"/>
<text text-anchor="middle" x="35" y="-229.8" font-family="Times,serif" font-size="14.00">vsftpd</text>
</g>
<!-- ftpd_t -->
<g id="node2" class="node"><title>ftpd_t</title>
<ellipse fill="none" stroke="black" cx="215" cy="-234" rx="31.4636" ry="18"/>
<text text-anchor="middle" x="215" y="-229.8" font-family="Times,serif" font-size="14.00">ftpd_t</text>
</g>
<!-- vsftpd&#45;&#45;ftpd_t -->
<g id="edge1" class="edge"><title>vsftpd&#45;&#45;ftpd_t</title>
<path fill="none" stroke="black" d="M67.4131,-234C100.149,-234 151.101,-234 183.496,-234"/>
</g>
<!-- ftp_home_dir -->
<g id="node3" class="node"><title>ftp_home_dir</title>
<ellipse fill="none" stroke="black" cx="473" cy="-450" rx="58.491" ry="18"/>
<text text-anchor="middle" x="473" y="-445.8" font-family="Times,serif" font-size="14.00">ftp_home_dir</text>
</g>
<!-- ftpd_t&#45;&#45;ftp_home_dir -->
<g id="edge2" class="edge"><title>ftpd_t&#45;&#45;ftp_home_dir</title>
<path fill="none" stroke="black" d="M246.459,-234.921C266.836,-237.224 292.639,-243.697 308,-261 340.015,-297.064 309.004,-322.87 326,-368 336.128,-394.894 336.725,-406.143 360,-423 376.361,-434.85 397.245,-441.552 416.537,-445.324"/>
<text text-anchor="middle" x="334" y="-407.8" font-family="Times,serif" font-size="14.00">off</text>
</g>
<!-- ftpd_use_cifs -->
<g id="node4" class="node"><title>ftpd_use_cifs</title>
<ellipse fill="none" stroke="black" cx="473" cy="-396" rx="57.5065" ry="18"/>
<text text-anchor="middle" x="473" y="-391.8" font-family="Times,serif" font-size="14.00">ftpd_use_cifs</text>
</g>
<!-- ftpd_t&#45;&#45;ftpd_use_cifs -->
<g id="edge3" class="edge"><title>ftpd_t&#45;&#45;ftpd_use_cifs</title>
<path fill="none" stroke="black" d="M246.515,-235.817C266.391,-238.55 291.585,-245.17 308,-261 326.21,-278.561 315.182,-292.131 326,-315 338.127,-340.637 336.962,-352.459 360,-369 376.572,-380.899 397.719,-387.602 417.163,-391.361"/>
<text text-anchor="middle" x="334" y="-352.8" font-family="Times,serif" font-size="14.00">off</text>
</g>
<!-- ftpd_use_fusefs -->
<g id="node5" class="node"><title>ftpd_use_fusefs</title>
<ellipse fill="none" stroke="black" cx="473" cy="-342" rx="66.208" ry="18"/>
<text text-anchor="middle" x="473" y="-337.8" font-family="Times,serif" font-size="14.00">ftpd_use_fusefs</text>
</g>
<!-- ftpd_t&#45;&#45;ftpd_use_fusefs -->
<g id="edge4" class="edge"><title>ftpd_t&#45;&#45;ftpd_use_fusefs</title>
<path fill="none" stroke="black" d="M245.35,-238.588C264.249,-242.481 288.782,-249.353 308,-261 322.247,-269.635 345.546,-306.716 360,-315 376.052,-324.2 395.126,-330.276 412.943,-334.285"/>
<text text-anchor="middle" x="334" y="-299.8" font-family="Times,serif" font-size="14.00">off</text>
</g>
<!-- ftpd_connect_db -->
<g id="node6" class="node"><title>ftpd_connect_db</title>
<ellipse fill="none" stroke="black" cx="473" cy="-288" rx="69.5736" ry="18"/>
<text text-anchor="middle" x="473" y="-283.8" font-family="Times,serif" font-size="14.00">ftpd_connect_db</text>
</g>
<!-- ftpd_t&#45;&#45;ftpd_connect_db -->
<g id="edge5" class="edge"><title>ftpd_t&#45;&#45;ftpd_connect_db</title>
<path fill="none" stroke="black" d="M244.869,-240.09C286.844,-248.944 365.464,-265.528 418.282,-276.669"/>
<text text-anchor="middle" x="334" y="-262.8" font-family="Times,serif" font-size="14.00">off</text>
</g>
<!-- ftpd_full_access -->
<g id="node7" class="node"><title>ftpd_full_access</title>
<ellipse fill="none" stroke="black" cx="473" cy="-234" rx="68.1201" ry="18"/>
<text text-anchor="middle" x="473" y="-229.8" font-family="Times,serif" font-size="14.00">ftpd_full_access</text>
</g>
<!-- ftpd_t&#45;&#45;ftpd_full_access -->
<g id="edge6" class="edge"><title>ftpd_t&#45;&#45;ftpd_full_access</title>
<path fill="none" stroke="black" d="M246.372,-234C285.178,-234 353.46,-234 404.773,-234"/>
<text text-anchor="middle" x="334" y="-236.8" font-family="Times,serif" font-size="14.00">off</text>
</g>
<!-- ftpd_use_passive_mode -->
<g id="node12" class="node"><title>ftpd_use_passive_mode</title>
<ellipse fill="none" stroke="black" cx="473" cy="-180" rx="95.1741" ry="18"/>
<text text-anchor="middle" x="473" y="-175.8" font-family="Times,serif" font-size="14.00">ftpd_use_passive_mode</text>
</g>
<!-- ftpd_t&#45;&#45;ftpd_use_passive_mode -->
<g id="edge9" class="edge"><title>ftpd_t&#45;&#45;ftpd_use_passive_mode</title>
<path fill="none" stroke="black" d="M244.869,-227.91C284.425,-219.567 356.524,-204.358 408.905,-193.309"/>
<text text-anchor="middle" x="334" y="-213.8" font-family="Times,serif" font-size="14.00">off</text>
</g>
<!-- ftpd_use_nfs -->
<g id="node14" class="node"><title>ftpd_use_nfs</title>
<ellipse fill="none" stroke="black" cx="473" cy="-126" rx="55.5854" ry="18"/>
<text text-anchor="middle" x="473" y="-121.8" font-family="Times,serif" font-size="14.00">ftpd_use_nfs</text>
</g>
<!-- ftpd_t&#45;&#45;ftpd_use_nfs -->
<g id="edge11" class="edge"><title>ftpd_t&#45;&#45;ftpd_use_nfs</title>
<path fill="none" stroke="black" d="M236.095,-220.319C263.145,-202.47 313.282,-171.361 360,-153 380.291,-145.025 403.607,-138.947 423.694,-134.595"/>
<text text-anchor="middle" x="334" y="-170.8" font-family="Times,serif" font-size="14.00">off</text>
</g>
<!-- ftpd_connect_all_unreserved -->
<g id="node15" class="node"><title>ftpd_connect_all_unreserved</title>
<ellipse fill="none" stroke="black" cx="473" cy="-72" rx="112.997" ry="18"/>
<text text-anchor="middle" x="473" y="-67.8" font-family="Times,serif" font-size="14.00">ftpd_connect_all_unreserved</text>
</g>
<!-- ftpd_t&#45;&#45;ftpd_connect_all_unreserved -->
<g id="edge12" class="edge"><title>ftpd_t&#45;&#45;ftpd_connect_all_unreserved</title>
<path fill="none" stroke="black" d="M228.715,-217.42C251.677,-188.683 303.003,-129.758 360,-99 370.737,-93.2057 382.717,-88.6398 394.737,-85.0458"/>
<text text-anchor="middle" x="334" y="-122.8" font-family="Times,serif" font-size="14.00">off</text>
</g>
<!-- ftpd_anon_write -->
<g id="node18" class="node"><title>ftpd_anon_write</title>
<ellipse fill="none" stroke="black" cx="473" cy="-18" rx="68.6133" ry="18"/>
<text text-anchor="middle" x="473" y="-13.8" font-family="Times,serif" font-size="14.00">ftpd_anon_write</text>
</g>
<!-- ftpd_t&#45;&#45;ftpd_anon_write -->
<g id="edge15" class="edge"><title>ftpd_t&#45;&#45;ftpd_anon_write</title>
<path fill="none" stroke="black" d="M224.013,-216.735C242.371,-179.182 291.251,-89.8593 360,-45 374.825,-35.3268 392.784,-29.115 409.94,-25.1273"/>
<text text-anchor="middle" x="334" y="-71.8" font-family="Times,serif" font-size="14.00">off</text>
</g>
<!-- tftp_home_dir -->
<g id="node8" class="node"><title>tftp_home_dir</title>
<ellipse fill="none" stroke="black" cx="215" cy="-342" rx="60.9046" ry="18"/>
<text text-anchor="middle" x="215" y="-337.8" font-family="Times,serif" font-size="14.00">tftp_home_dir</text>
</g>
<!-- tftpd_t -->
<g id="node9" class="node"><title>tftpd_t</title>
<ellipse fill="none" stroke="black" cx="35" cy="-315" rx="33.877" ry="18"/>
<text text-anchor="middle" x="35" y="-310.8" font-family="Times,serif" font-size="14.00">tftpd_t</text>
</g>
<!-- tftpd_t&#45;&#45;tftp_home_dir -->
<g id="edge7" class="edge"><title>tftpd_t&#45;&#45;tftp_home_dir</title>
<path fill="none" stroke="black" d="M67.8228,-319.827C93.5224,-323.725 130.252,-329.297 160.464,-333.879"/>
<text text-anchor="middle" x="96" y="-327.8" font-family="Times,serif" font-size="14.00">off</text>
</g>
<!-- tftp_anon_write -->
<g id="node17" class="node"><title>tftp_anon_write</title>
<ellipse fill="none" stroke="black" cx="215" cy="-288" rx="66.6839" ry="18"/>
<text text-anchor="middle" x="215" y="-283.8" font-family="Times,serif" font-size="14.00">tftp_anon_write</text>
</g>
<!-- tftpd_t&#45;&#45;tftp_anon_write -->
<g id="edge14" class="edge"><title>tftpd_t&#45;&#45;tftp_anon_write</title>
<path fill="none" stroke="black" d="M66.4411,-308.123C73.4983,-306.651 80.9941,-305.184 88,-304 109.09,-300.436 132.288,-297.276 152.968,-294.725"/>
<text text-anchor="middle" x="96" y="-306.8" font-family="Times,serif" font-size="14.00">off</text>
</g>
<!-- sftpd_enable_homedirs -->
<g id="node10" class="node"><title>sftpd_enable_homedirs</title>
<ellipse fill="none" stroke="black" cx="215" cy="-558" rx="92.7515" ry="18"/>
<text text-anchor="middle" x="215" y="-553.8" font-family="Times,serif" font-size="14.00">sftpd_enable_homedirs</text>
</g>
<!-- sftpd_t -->
<g id="node11" class="node"><title>sftpd_t</title>
<ellipse fill="none" stroke="black" cx="35" cy="-477" rx="34.8458" ry="18"/>
<text text-anchor="middle" x="35" y="-472.8" font-family="Times,serif" font-size="14.00">sftpd_t</text>
</g>
<!-- sftpd_t&#45;&#45;sftpd_enable_homedirs -->
<g id="edge8" class="edge"><title>sftpd_t&#45;&#45;sftpd_enable_homedirs</title>
<path fill="none" stroke="black" d="M55.6208,-491.523C72.5055,-503.469 97.8868,-520.143 122,-531 132.928,-535.921 144.987,-540.209 156.675,-543.832"/>
<text text-anchor="middle" x="96" y="-523.8" font-family="Times,serif" font-size="14.00">off</text>
</g>
<!-- sftpd_write_ssh_home -->
<g id="node13" class="node"><title>sftpd_write_ssh_home</title>
<ellipse fill="none" stroke="black" cx="215" cy="-504" rx="90.3637" ry="18"/>
<text text-anchor="middle" x="215" y="-499.8" font-family="Times,serif" font-size="14.00">sftpd_write_ssh_home</text>
</g>
<!-- sftpd_t&#45;&#45;sftpd_write_ssh_home -->
<g id="edge10" class="edge"><title>sftpd_t&#45;&#45;sftpd_write_ssh_home</title>
<path fill="none" stroke="black" d="M68.6479,-481.952C89.4236,-485.104 117.159,-489.311 142.83,-493.205"/>
<text text-anchor="middle" x="96" y="-489.8" font-family="Times,serif" font-size="14.00">off</text>
</g>
<!-- sftpd_full_access -->
<g id="node16" class="node"><title>sftpd_full_access</title>
<ellipse fill="none" stroke="black" cx="215" cy="-450" rx="71.5031" ry="18"/>
<text text-anchor="middle" x="215" y="-445.8" font-family="Times,serif" font-size="14.00">sftpd_full_access</text>
</g>
<!-- sftpd_t&#45;&#45;sftpd_full_access -->
<g id="edge13" class="edge"><title>sftpd_t&#45;&#45;sftpd_full_access</title>
<path fill="none" stroke="black" d="M66.9918,-470.008C73.8873,-468.575 81.1761,-467.153 88,-466 107.786,-462.657 129.426,-459.669 149.103,-457.206"/>
<text text-anchor="middle" x="96" y="-468.8" font-family="Times,serif" font-size="14.00">off</text>
</g>
<!-- sftpd_anon_write -->
<g id="node19" class="node"><title>sftpd_anon_write</title>
<ellipse fill="none" stroke="black" cx="215" cy="-396" rx="71.9963" ry="18"/>
<text text-anchor="middle" x="215" y="-391.8" font-family="Times,serif" font-size="14.00">sftpd_anon_write</text>
</g>
<!-- sftpd_t&#45;&#45;sftpd_anon_write -->
<g id="edge16" class="edge"><title>sftpd_t&#45;&#45;sftpd_anon_write</title>
<path fill="none" stroke="black" d="M55.6208,-462.477C72.5055,-450.531 97.8868,-433.857 122,-423 134.75,-417.259 149.038,-412.379 162.482,-408.412"/>
<text text-anchor="middle" x="96" y="-441.8" font-family="Times,serif" font-size="14.00">off</text>
</g>
</g>
</svg>
