<?xml version="1.0" encoding="UTF-8" standalone="no"?>
<!DOCTYPE svg PUBLIC "-//W3C//DTD SVG 1.1//EN"
 "http://www.w3.org/Graphics/SVG/1.1/DTD/svg11.dtd">
<!-- Generated by graphviz version 2.36.0 (20140111.2315)
 -->
<!-- Title: %3 Pages: 1 -->
<svg width="4525pt" height="188pt"
 viewBox="0.00 0.00 4525.00 188.00" xmlns="http://www.w3.org/2000/svg" xmlns:xlink="http://www.w3.org/1999/xlink">
<g id="graph0" class="graph" transform="scale(1 1) rotate(0) translate(4 184)">
<title>%3</title>
<polygon fill="white" stroke="none" points="-4,4 -4,-184 4521,-184 4521,4 -4,4"/>
<!-- vsftpd -->
<g id="node1" class="node"><title>vsftpd</title>
<ellipse fill="none" stroke="black" cx="644" cy="-162" rx="32.324" ry="18"/>
<text text-anchor="middle" x="644" y="-157.8" font-family="Times,serif" font-size="14.00">vsftpd</text>
</g>
<!-- ftpd_t -->
<g id="node2" class="node"><title>ftpd_t</title>
<ellipse fill="none" stroke="black" cx="644" cy="-90" rx="31.3473" ry="18"/>
<text text-anchor="middle" x="644" y="-85.8" font-family="Times,serif" font-size="14.00">ftpd_t</text>
</g>
<!-- vsftpd&#45;&#45;ftpd_t -->
<g id="edge1" class="edge"><title>vsftpd&#45;&#45;ftpd_t</title>
<path fill="none" stroke="black" d="M644,-143.697C644,-132.846 644,-118.917 644,-108.104"/>
</g>
<!-- ftp_home_dir -->
<g id="node3" class="node"><title>ftp_home_dir</title>
<ellipse fill="none" stroke="black" cx="58" cy="-18" rx="58.368" ry="18"/>
<text text-anchor="middle" x="58" y="-13.8" font-family="Times,serif" font-size="14.00">ftp_home_dir</text>
</g>
<!-- ftpd_t&#45;&#45;ftp_home_dir -->
<g id="edge2" class="edge"><title>ftpd_t&#45;&#45;ftp_home_dir</title>
<path fill="none" stroke="black" d="M613.071,-87.4285C532.288,-82.982 308.503,-68.469 125,-36 116.846,-34.5573 108.221,-32.6573 99.9697,-30.6513"/>
</g>
<!-- ftpd_use_cifs -->
<g id="node4" class="node"><title>ftpd_use_cifs</title>
<ellipse fill="none" stroke="black" cx="192" cy="-18" rx="57.1317" ry="18"/>
<text text-anchor="middle" x="192" y="-13.8" font-family="Times,serif" font-size="14.00">ftpd_use_cifs</text>
</g>
<!-- ftpd_t&#45;&#45;ftpd_use_cifs -->
<g id="edge3" class="edge"><title>ftpd_t&#45;&#45;ftpd_use_cifs</title>
<path fill="none" stroke="black" d="M613.364,-85.9587C547.922,-79.2049 389.789,-61.5123 259,-36 250.873,-34.4147 242.259,-32.4489 234.012,-30.423"/>
</g>
<!-- ftpd_use_fusefs -->
<g id="node5" class="node"><title>ftpd_use_fusefs</title>
<ellipse fill="none" stroke="black" cx="334" cy="-18" rx="66.156" ry="18"/>
<text text-anchor="middle" x="334" y="-13.8" font-family="Times,serif" font-size="14.00">ftpd_use_fusefs</text>
</g>
<!-- ftpd_t&#45;&#45;ftpd_use_fusefs -->
<g id="edge4" class="edge"><title>ftpd_t&#45;&#45;ftpd_use_fusefs</title>
<path fill="none" stroke="black" d="M615.42,-82.5647C571.18,-72.601 483.448,-52.8327 409,-36 400.666,-34.1156 391.811,-32.1109 383.217,-30.1638"/>
</g>
<!-- ftpd_connect_db -->
<g id="node6" class="node"><title>ftpd_connect_db</title>
<ellipse fill="none" stroke="black" cx="488" cy="-18" rx="69.3051" ry="18"/>
<text text-anchor="middle" x="488" y="-13.8" font-family="Times,serif" font-size="14.00">ftpd_connect_db</text>
</g>
<!-- ftpd_t&#45;&#45;ftpd_connect_db -->
<g id="edge5" class="edge"><title>ftpd_t&#45;&#45;ftpd_connect_db</title>
<path fill="none" stroke="black" d="M619.967,-78.2159C593.472,-66.3272 550.683,-47.1269 521.043,-33.8271"/>
</g>
<!-- ftpd_full_access -->
<g id="node7" class="node"><title>ftpd_full_access</title>
<ellipse fill="none" stroke="black" cx="644" cy="-18" rx="68.0901" ry="18"/>
<text text-anchor="middle" x="644" y="-13.8" font-family="Times,serif" font-size="14.00">ftpd_full_access</text>
</g>
<!-- ftpd_t&#45;&#45;ftpd_full_access -->
<g id="edge6" class="edge"><title>ftpd_t&#45;&#45;ftpd_full_access</title>
<path fill="none" stroke="black" d="M644,-71.6966C644,-60.8463 644,-46.9167 644,-36.1043"/>
</g>
<!-- ftpd_use_passive_mode -->
<g id="node12" class="node"><title>ftpd_use_passive_mode</title>
<ellipse fill="none" stroke="black" cx="825" cy="-18" rx="95.1305" ry="18"/>
<text text-anchor="middle" x="825" y="-13.8" font-family="Times,serif" font-size="14.00">ftpd_use_passive_mode</text>
</g>
<!-- ftpd_t&#45;&#45;ftpd_use_passive_mode -->
<g id="edge9" class="edge"><title>ftpd_t&#45;&#45;ftpd_use_passive_mode</title>
<path fill="none" stroke="black" d="M668.471,-78.4064C673.585,-76.2466 678.956,-74.0187 684,-72 717.141,-58.7359 755.027,-44.5485 783.176,-34.1935"/>
</g>
<!-- ftpd_use_nfs -->
<g id="node14" class="node"><title>ftpd_use_nfs</title>
<ellipse fill="none" stroke="black" cx="994" cy="-18" rx="55.1907" ry="18"/>
<text text-anchor="middle" x="994" y="-13.8" font-family="Times,serif" font-size="14.00">ftpd_use_nfs</text>
</g>
<!-- ftpd_t&#45;&#45;ftpd_use_nfs -->
<g id="edge11" class="edge"><title>ftpd_t&#45;&#45;ftpd_use_nfs</title>
<path fill="none" stroke="black" d="M667.329,-77.9057C672.711,-75.6795 678.479,-73.5511 684,-72 789.956,-42.2324 821.154,-57.957 929,-36 936.887,-34.3943 945.244,-32.4192 953.245,-30.3904"/>
</g>
<!-- ftpd_connect_all_unreserved -->
<g id="node15" class="node"><title>ftpd_connect_all_unreserved</title>
<ellipse fill="none" stroke="black" cx="1181" cy="-18" rx="112.622" ry="18"/>
<text text-anchor="middle" x="1181" y="-13.8" font-family="Times,serif" font-size="14.00">ftpd_connect_all_unreserved</text>
</g>
<!-- ftpd_t&#45;&#45;ftpd_connect_all_unreserved -->
<g id="edge12" class="edge"><title>ftpd_t&#45;&#45;ftpd_connect_all_unreserved</title>
<path fill="none" stroke="black" d="M667.274,-77.7006C672.659,-75.485 678.442,-73.4128 684,-72 845.844,-30.8613 892.144,-55.4355 1058,-36 1071.81,-34.3817 1086.47,-32.4997 1100.67,-30.5896"/>
</g>
<!-- ftpd_anon_write -->
<g id="node18" class="node"><title>ftpd_anon_write</title>
<ellipse fill="none" stroke="black" cx="1380" cy="-18" rx="68.3347" ry="18"/>
<text text-anchor="middle" x="1380" y="-13.8" font-family="Times,serif" font-size="14.00">ftpd_anon_write</text>
</g>
<!-- ftpd_t&#45;&#45;ftpd_anon_write -->
<g id="edge15" class="edge"><title>ftpd_t&#45;&#45;ftpd_anon_write</title>
<path fill="none" stroke="black" d="M666.811,-77.7192C672.318,-75.4443 678.269,-73.3419 684,-72 951.885,-9.26834 1029.42,-73.409 1302,-36 1311.61,-34.6809 1321.8,-32.8121 1331.53,-30.7929"/>
</g>
<!-- tftp_home_dir -->
<g id="node8" class="node"><title>tftp_home_dir</title>
<ellipse fill="none" stroke="black" cx="754" cy="-90" rx="60.5525" ry="18"/>
<text text-anchor="middle" x="754" y="-85.8" font-family="Times,serif" font-size="14.00">tftp_home_dir</text>
</g>
<!-- tftpd_t -->
<g id="node9" class="node"><title>tftpd_t</title>
<ellipse fill="none" stroke="black" cx="826" cy="-162" rx="33.5311" ry="18"/>
<text text-anchor="middle" x="826" y="-157.8" font-family="Times,serif" font-size="14.00">tftpd_t</text>
</g>
<!-- tftpd_t&#45;&#45;tftp_home_dir -->
<g id="edge7" class="edge"><title>tftpd_t&#45;&#45;tftp_home_dir</title>
<path fill="none" stroke="black" d="M810.377,-145.811C798.714,-134.472 782.796,-118.996 770.848,-107.38"/>
</g>
<!-- tftp_anon_write -->
<g id="node17" class="node"><title>tftp_anon_write</title>
<ellipse fill="none" stroke="black" cx="899" cy="-90" rx="66.3875" ry="18"/>
<text text-anchor="middle" x="899" y="-85.8" font-family="Times,serif" font-size="14.00">tftp_anon_write</text>
</g>
<!-- tftpd_t&#45;&#45;tftp_anon_write -->
<g id="edge14" class="edge"><title>tftpd_t&#45;&#45;tftp_anon_write</title>
<path fill="none" stroke="black" d="M841.84,-145.811C853.581,-134.552 869.576,-119.215 881.66,-107.628"/>
</g>
<!-- sftpd_enable_homedirs -->
<g id="node10" class="node"><title>sftpd_enable_homedirs</title>
<ellipse fill="none" stroke="black" cx="1076" cy="-90" rx="92.4383" ry="18"/>
<text text-anchor="middle" x="1076" y="-85.8" font-family="Times,serif" font-size="14.00">sftpd_enable_homedirs</text>
</g>
<!-- sftpd_t -->
<g id="node11" class="node"><title>sftpd_t</title>
<ellipse fill="none" stroke="black" cx="1367" cy="-162" rx="34.5079" ry="18"/>
<text text-anchor="middle" x="1367" y="-157.8" font-family="Times,serif" font-size="14.00">sftpd_t</text>
</g>
<!-- sftpd_t&#45;&#45;sftpd_enable_homedirs -->
<g id="edge8" class="edge"><title>sftpd_t&#45;&#45;sftpd_enable_homedirs</title>
<path fill="none" stroke="black" d="M1336.41,-153.641C1287.89,-141.97 1192.56,-119.039 1131.69,-104.396"/>
</g>
<!-- sftpd_write_ssh_home -->
<g id="node13" class="node"><title>sftpd_write_ssh_home</title>
<ellipse fill="none" stroke="black" cx="1277" cy="-90" rx="90.2726" ry="18"/>
<text text-anchor="middle" x="1277" y="-85.8" font-family="Times,serif" font-size="14.00">sftpd_write_ssh_home</text>
</g>
<!-- sftpd_t&#45;&#45;sftpd_write_ssh_home -->
<g id="edge10" class="edge"><title>sftpd_t&#45;&#45;sftpd_write_ssh_home</title>
<path fill="none" stroke="black" d="M1348.35,-146.496C1333.83,-135.203 1313.66,-119.515 1298.47,-107.699"/>
</g>
<!-- sftpd_full_access -->
<g id="node16" class="node"><title>sftpd_full_access</title>
<ellipse fill="none" stroke="black" cx="1457" cy="-90" rx="71.2523" ry="18"/>
<text text-anchor="middle" x="1457" y="-85.8" font-family="Times,serif" font-size="14.00">sftpd_full_access</text>
</g>
<!-- sftpd_t&#45;&#45;sftpd_full_access -->
<g id="edge13" class="edge"><title>sftpd_t&#45;&#45;sftpd_full_access</title>
<path fill="none" stroke="black" d="M1385.65,-146.496C1400.27,-135.123 1420.62,-119.292 1435.85,-107.448"/>
</g>
<!-- sftpd_anon_write -->
<g id="node19" class="node"><title>sftpd_anon_write</title>
<ellipse fill="none" stroke="black" cx="1618" cy="-90" rx="71.4972" ry="18"/>
<text text-anchor="middle" x="1618" y="-85.8" font-family="Times,serif" font-size="14.00">sftpd_anon_write</text>
</g>
<!-- sftpd_t&#45;&#45;sftpd_anon_write -->
<g id="edge16" class="edge"><title>sftpd_t&#45;&#45;sftpd_anon_write</title>
<path fill="none" stroke="black" d="M1393.34,-150.24C1399.12,-148.046 1405.23,-145.847 1411,-144 1463.11,-127.325 1523.89,-112.271 1566.05,-102.505"/>
</g>
<!-- /etc/cron\.monthly/proftpd -->
<g id="node20" class="node"><title>/etc/cron\.monthly/proftpd</title>
<ellipse fill="none" stroke="black" cx="1521" cy="-162" rx="101.335" ry="18"/>
<text text-anchor="middle" x="1521" y="-157.8" font-family="Times,serif" font-size="14.00">/etc/cron.monthly/proftpd</text>
</g>
<!-- ftpd_exec_t -->
<g id="node21" class="node"><title>ftpd_exec_t</title>
<ellipse fill="none" stroke="black" cx="2058" cy="-90" rx="51.2765" ry="18"/>
<text text-anchor="middle" x="2058" y="-85.8" font-family="Times,serif" font-size="14.00">ftpd_exec_t</text>
</g>
<!-- /etc/cron\.monthly/proftpd&#45;&#45;ftpd_exec_t -->
<g id="edge17" class="edge"><title>/etc/cron\.monthly/proftpd&#45;&#45;ftpd_exec_t</title>
<path fill="none" stroke="black" d="M1593.73,-149.446C1606.16,-147.562 1618.94,-145.68 1631,-144 1768.24,-124.882 1930.79,-105.642 2009.91,-96.4948"/>
</g>
<!-- /etc/proftpd\.conf -->
<g id="node22" class="node"><title>/etc/proftpd\.conf</title>
<ellipse fill="none" stroke="black" cx="2701" cy="-162" rx="68.9306" ry="18"/>
<text text-anchor="middle" x="2701" y="-157.8" font-family="Times,serif" font-size="14.00">/etc/proftpd.conf</text>
</g>
<!-- ftpd_etc_t -->
<g id="node23" class="node"><title>ftpd_etc_t</title>
<ellipse fill="none" stroke="black" cx="2701" cy="-90" rx="45.4404" ry="18"/>
<text text-anchor="middle" x="2701" y="-85.8" font-family="Times,serif" font-size="14.00">ftpd_etc_t</text>
</g>
<!-- /etc/proftpd\.conf&#45;&#45;ftpd_etc_t -->
<g id="edge18" class="edge"><title>/etc/proftpd\.conf&#45;&#45;ftpd_etc_t</title>
<path fill="none" stroke="black" d="M2701,-143.697C2701,-132.846 2701,-118.917 2701,-108.104"/>
</g>
<!-- /etc/rc\.d/init\.d/proftpd -->
<g id="node24" class="node"><title>/etc/rc\.d/init\.d/proftpd</title>
<ellipse fill="none" stroke="black" cx="2876" cy="-162" rx="88.3062" ry="18"/>
<text text-anchor="middle" x="2876" y="-157.8" font-family="Times,serif" font-size="14.00">/etc/rc.d/init.d/proftpd</text>
</g>
<!-- ftpd_initrc_exec_t -->
<g id="node25" class="node"><title>ftpd_initrc_exec_t</title>
<ellipse fill="none" stroke="black" cx="2971" cy="-90" rx="74.4021" ry="18"/>
<text text-anchor="middle" x="2971" y="-85.8" font-family="Times,serif" font-size="14.00">ftpd_initrc_exec_t</text>
</g>
<!-- /etc/rc\.d/init\.d/proftpd&#45;&#45;ftpd_initrc_exec_t -->
<g id="edge19" class="edge"><title>/etc/rc\.d/init\.d/proftpd&#45;&#45;ftpd_initrc_exec_t</title>
<path fill="none" stroke="black" d="M2898.51,-144.411C2913.77,-133.172 2933.83,-118.391 2948.98,-107.228"/>
</g>
<!-- /etc/rc\.d/init\.d/vsftpd -->
<g id="node26" class="node"><title>/etc/rc\.d/init\.d/vsftpd</title>
<ellipse fill="none" stroke="black" cx="3066" cy="-162" rx="83.9191" ry="18"/>
<text text-anchor="middle" x="3066" y="-157.8" font-family="Times,serif" font-size="14.00">/etc/rc.d/init.d/vsftpd</text>
</g>
<!-- /etc/rc\.d/init\.d/vsftpd&#45;&#45;ftpd_initrc_exec_t -->
<g id="edge20" class="edge"><title>/etc/rc\.d/init\.d/vsftpd&#45;&#45;ftpd_initrc_exec_t</title>
<path fill="none" stroke="black" d="M3043.49,-144.411C3028.23,-133.172 3008.17,-118.391 2993.02,-107.228"/>
</g>
<!-- /etc/xinetd\.d/tftp -->
<g id="node27" class="node"><title>/etc/xinetd\.d/tftp</title>
<ellipse fill="none" stroke="black" cx="3237" cy="-162" rx="68.2058" ry="18"/>
<text text-anchor="middle" x="3237" y="-157.8" font-family="Times,serif" font-size="14.00">/etc/xinetd.d/tftp</text>
</g>
<!-- tftpd_etc_t -->
<g id="node28" class="node"><title>tftpd_etc_t</title>
<ellipse fill="none" stroke="black" cx="3237" cy="-90" rx="48.126" ry="18"/>
<text text-anchor="middle" x="3237" y="-85.8" font-family="Times,serif" font-size="14.00">tftpd_etc_t</text>
</g>
<!-- /etc/xinetd\.d/tftp&#45;&#45;tftpd_etc_t -->
<g id="edge21" class="edge"><title>/etc/xinetd\.d/tftp&#45;&#45;tftpd_etc_t</title>
<path fill="none" stroke="black" d="M3237,-143.697C3237,-132.846 3237,-118.917 3237,-108.104"/>
</g>
<!-- /tftpboot -->
<g id="node29" class="node"><title>/tftpboot</title>
<ellipse fill="none" stroke="black" cx="3364" cy="-162" rx="40.3497" ry="18"/>
<text text-anchor="middle" x="3364" y="-157.8" font-family="Times,serif" font-size="14.00">/tftpboot</text>
</g>
<!-- tftpdir_t -->
<g id="node30" class="node"><title>tftpdir_t</title>
<ellipse fill="none" stroke="black" cx="3418" cy="-90" rx="39.135" ry="18"/>
<text text-anchor="middle" x="3418" y="-85.8" font-family="Times,serif" font-size="14.00">tftpdir_t</text>
</g>
<!-- /tftpboot&#45;&#45;tftpdir_t -->
<g id="edge22" class="edge"><title>/tftpboot&#45;&#45;tftpdir_t</title>
<path fill="none" stroke="black" d="M3376.52,-144.765C3385.25,-133.456 3396.83,-118.437 3405.54,-107.147"/>
</g>
<!-- /tftpboot/.* -->
<g id="node31" class="node"><title>/tftpboot/.*</title>
<ellipse fill="none" stroke="black" cx="3472" cy="-162" rx="49.4839" ry="18"/>
<text text-anchor="middle" x="3472" y="-157.8" font-family="Times,serif" font-size="14.00">/tftpboot/.*</text>
</g>
<!-- /tftpboot/.*&#45;&#45;tftpdir_t -->
<g id="edge23" class="edge"><title>/tftpboot/.*&#45;&#45;tftpdir_t</title>
<path fill="none" stroke="black" d="M3459.2,-144.411C3450.59,-133.252 3439.29,-118.604 3430.71,-107.47"/>
</g>
<!-- /usr/bin/ftpdctl -->
<g id="node32" class="node"><title>/usr/bin/ftpdctl</title>
<ellipse fill="none" stroke="black" cx="3602" cy="-162" rx="62.5061" ry="18"/>
<text text-anchor="middle" x="3602" y="-157.8" font-family="Times,serif" font-size="14.00">/usr/bin/ftpdctl</text>
</g>
<!-- ftpdctl_exec_t -->
<g id="node33" class="node"><title>ftpdctl_exec_t</title>
<ellipse fill="none" stroke="black" cx="3602" cy="-90" rx="60.5331" ry="18"/>
<text text-anchor="middle" x="3602" y="-85.8" font-family="Times,serif" font-size="14.00">ftpdctl_exec_t</text>
</g>
<!-- /usr/bin/ftpdctl&#45;&#45;ftpdctl_exec_t -->
<g id="edge24" class="edge"><title>/usr/bin/ftpdctl&#45;&#45;ftpdctl_exec_t</title>
<path fill="none" stroke="black" d="M3602,-143.697C3602,-132.846 3602,-118.917 3602,-108.104"/>
</g>
<!-- /usr/kerberos/sbin/ftpd -->
<g id="node34" class="node"><title>/usr/kerberos/sbin/ftpd</title>
<ellipse fill="none" stroke="black" cx="1730" cy="-162" rx="90.2662" ry="18"/>
<text text-anchor="middle" x="1730" y="-157.8" font-family="Times,serif" font-size="14.00">/usr/kerberos/sbin/ftpd</text>
</g>
<!-- /usr/kerberos/sbin/ftpd&#45;&#45;ftpd_exec_t -->
<g id="edge25" class="edge"><title>/usr/kerberos/sbin/ftpd&#45;&#45;ftpd_exec_t</title>
<path fill="none" stroke="black" d="M1789.4,-148.324C1854.57,-134.416 1957.55,-112.437 2015.23,-100.127"/>
</g>
<!-- /usr/sbin/atftpd -->
<g id="node35" class="node"><title>/usr/sbin/atftpd</title>
<ellipse fill="none" stroke="black" cx="3746" cy="-162" rx="63.4829" ry="18"/>
<text text-anchor="middle" x="3746" y="-157.8" font-family="Times,serif" font-size="14.00">/usr/sbin/atftpd</text>
</g>
<!-- tftpd_exec_t -->
<g id="node36" class="node"><title>tftpd_exec_t</title>
<ellipse fill="none" stroke="black" cx="3821" cy="-90" rx="53.9615" ry="18"/>
<text text-anchor="middle" x="3821" y="-85.8" font-family="Times,serif" font-size="14.00">tftpd_exec_t</text>
</g>
<!-- /usr/sbin/atftpd&#45;&#45;tftpd_exec_t -->
<g id="edge26" class="edge"><title>/usr/sbin/atftpd&#45;&#45;tftpd_exec_t</title>
<path fill="none" stroke="black" d="M3763.77,-144.411C3775.82,-133.172 3791.65,-118.391 3803.61,-107.228"/>
</g>
<!-- /usr/sbin/ftpwho -->
<g id="node37" class="node"><title>/usr/sbin/ftpwho</title>
<ellipse fill="none" stroke="black" cx="1906" cy="-162" rx="68.1225" ry="18"/>
<text text-anchor="middle" x="1906" y="-157.8" font-family="Times,serif" font-size="14.00">/usr/sbin/ftpwho</text>
</g>
<!-- /usr/sbin/ftpwho&#45;&#45;ftpd_exec_t -->
<g id="edge27" class="edge"><title>/usr/sbin/ftpwho&#45;&#45;ftpd_exec_t</title>
<path fill="none" stroke="black" d="M1938.61,-145.983C1965.13,-133.771 2002.24,-116.677 2028.03,-104.804"/>
</g>
<!-- /usr/sbin/in\.ftpd -->
<g id="node38" class="node"><title>/usr/sbin/in\.ftpd</title>
<ellipse fill="none" stroke="black" cx="2058" cy="-162" rx="66.0452" ry="18"/>
<text text-anchor="middle" x="2058" y="-157.8" font-family="Times,serif" font-size="14.00">/usr/sbin/in.ftpd</text>
</g>
<!-- /usr/sbin/in\.ftpd&#45;&#45;ftpd_exec_t -->
<g id="edge28" class="edge"><title>/usr/sbin/in\.ftpd&#45;&#45;ftpd_exec_t</title>
<path fill="none" stroke="black" d="M2058,-143.697C2058,-132.846 2058,-118.917 2058,-108.104"/>
</g>
<!-- /usr/sbin/in\.tftpd -->
<g id="node39" class="node"><title>/usr/sbin/in\.tftpd</title>
<ellipse fill="none" stroke="black" cx="3896" cy="-162" rx="68.2316" ry="18"/>
<text text-anchor="middle" x="3896" y="-157.8" font-family="Times,serif" font-size="14.00">/usr/sbin/in.tftpd</text>
</g>
<!-- /usr/sbin/in\.tftpd&#45;&#45;tftpd_exec_t -->
<g id="edge29" class="edge"><title>/usr/sbin/in\.tftpd&#45;&#45;tftpd_exec_t</title>
<path fill="none" stroke="black" d="M3878.23,-144.411C3866.18,-133.172 3850.35,-118.391 3838.39,-107.228"/>
</g>
<!-- /usr/sbin/muddleftpd -->
<g id="node40" class="node"><title>/usr/sbin/muddleftpd</title>
<ellipse fill="none" stroke="black" cx="2226" cy="-162" rx="83.2007" ry="18"/>
<text text-anchor="middle" x="2226" y="-157.8" font-family="Times,serif" font-size="14.00">/usr/sbin/muddleftpd</text>
</g>
<!-- /usr/sbin/muddleftpd&#45;&#45;ftpd_exec_t -->
<g id="edge30" class="edge"><title>/usr/sbin/muddleftpd&#45;&#45;ftpd_exec_t</title>
<path fill="none" stroke="black" d="M2189.13,-145.638C2159.38,-133.243 2117.97,-115.988 2089.7,-104.206"/>
</g>
<!-- /usr/sbin/proftpd -->
<g id="node41" class="node"><title>/usr/sbin/proftpd</title>
<ellipse fill="none" stroke="black" cx="2397" cy="-162" rx="69.0928" ry="18"/>
<text text-anchor="middle" x="2397" y="-157.8" font-family="Times,serif" font-size="14.00">/usr/sbin/proftpd</text>
</g>
<!-- /usr/sbin/proftpd&#45;&#45;ftpd_exec_t -->
<g id="edge31" class="edge"><title>/usr/sbin/proftpd&#45;&#45;ftpd_exec_t</title>
<path fill="none" stroke="black" d="M2345.6,-149.854C2336.41,-147.886 2326.93,-145.87 2318,-144 2242.03,-128.083 2153.42,-110.158 2101.73,-99.7639"/>
</g>
<!-- /usr/sbin/vsftpd -->
<g id="node42" class="node"><title>/usr/sbin/vsftpd</title>
<ellipse fill="none" stroke="black" cx="2549" cy="-162" rx="65.2051" ry="18"/>
<text text-anchor="middle" x="2549" y="-157.8" font-family="Times,serif" font-size="14.00">/usr/sbin/vsftpd</text>
</g>
<!-- /usr/sbin/vsftpd&#45;&#45;ftpd_exec_t -->
<g id="edge32" class="edge"><title>/usr/sbin/vsftpd&#45;&#45;ftpd_exec_t</title>
<path fill="none" stroke="black" d="M2502.17,-149.502C2493.18,-147.506 2483.83,-145.57 2475,-144 2342.8,-120.473 2185.21,-103.386 2107.03,-95.6359"/>
</g>
<!-- /var/lib/tftpboot(/.*)? -->
<g id="node43" class="node"><title>/var/lib/tftpboot(/.*)?</title>
<ellipse fill="none" stroke="black" cx="4068" cy="-162" rx="85.0193" ry="18"/>
<text text-anchor="middle" x="4068" y="-157.8" font-family="Times,serif" font-size="14.00">/var/lib/tftpboot(/.*)?</text>
</g>
<!-- tftpdir_rw_t -->
<g id="node44" class="node"><title>tftpdir_rw_t</title>
<ellipse fill="none" stroke="black" cx="4068" cy="-90" rx="52.2663" ry="18"/>
<text text-anchor="middle" x="4068" y="-85.8" font-family="Times,serif" font-size="14.00">tftpdir_rw_t</text>
</g>
<!-- /var/lib/tftpboot(/.*)?&#45;&#45;tftpdir_rw_t -->
<g id="edge33" class="edge"><title>/var/lib/tftpboot(/.*)?&#45;&#45;tftpdir_rw_t</title>
<path fill="none" stroke="black" d="M4068,-143.697C4068,-132.846 4068,-118.917 4068,-108.104"/>
</g>
<!-- /var/lock/subsys/*.ftpd -->
<g id="node45" class="node"><title>/var/lock/subsys/*.ftpd</title>
<ellipse fill="none" stroke="black" cx="4262" cy="-162" rx="90.3805" ry="18"/>
<text text-anchor="middle" x="4262" y="-157.8" font-family="Times,serif" font-size="14.00">/var/lock/subsys/*.ftpd</text>
</g>
<!-- ftpd_lock_t -->
<g id="node46" class="node"><title>ftpd_lock_t</title>
<ellipse fill="none" stroke="black" cx="4262" cy="-90" rx="50.3188" ry="18"/>
<text text-anchor="middle" x="4262" y="-85.8" font-family="Times,serif" font-size="14.00">ftpd_lock_t</text>
</g>
<!-- /var/lock/subsys/*.ftpd&#45;&#45;ftpd_lock_t -->
<g id="edge34" class="edge"><title>/var/lock/subsys/*.ftpd&#45;&#45;ftpd_lock_t</title>
<path fill="none" stroke="black" d="M4262,-143.697C4262,-132.846 4262,-118.917 4262,-108.104"/>
</g>
<!-- /var/run/proftpd.* -->
<g id="node47" class="node"><title>/var/run/proftpd.*</title>
<ellipse fill="none" stroke="black" cx="4444" cy="-162" rx="73.337" ry="18"/>
<text text-anchor="middle" x="4444" y="-157.8" font-family="Times,serif" font-size="14.00">/var/run/proftpd.*</text>
</g>
<!-- ftpd_var_run_t -->
<g id="node48" class="node"><title>ftpd_var_run_t</title>
<ellipse fill="none" stroke="black" cx="4444" cy="-90" rx="63.2322" ry="18"/>
<text text-anchor="middle" x="4444" y="-85.8" font-family="Times,serif" font-size="14.00">ftpd_var_run_t</text>
</g>
<!-- /var/run/proftpd.*&#45;&#45;ftpd_var_run_t -->
<g id="edge35" class="edge"><title>/var/run/proftpd.*&#45;&#45;ftpd_var_run_t</title>
<path fill="none" stroke="black" d="M4444,-143.697C4444,-132.846 4444,-118.917 4444,-108.104"/>
</g>
</g>
</svg>
