<?xml version="1.0" encoding="UTF-8" standalone="no"?>
<!DOCTYPE svg PUBLIC "-//W3C//DTD SVG 1.1//EN"
 "http://www.w3.org/Graphics/SVG/1.1/DTD/svg11.dtd">
<!-- Generated by graphviz version 2.36.0 (20140111.2315)
 -->
<!-- Title: %3 Pages: 1 -->
<svg width="174pt" height="360pt"
 viewBox="0.00 0.00 173.96 360.00" xmlns="http://www.w3.org/2000/svg" xmlns:xlink="http://www.w3.org/1999/xlink">
<g id="graph0" class="graph" transform="scale(0.223602 0.223602) rotate(0) translate(4 1606)">
<title>%3</title>
<polygon fill="white" stroke="none" points="-4,4 -4,-1606 774,-1606 774,4 -4,4"/>
<!-- httpd -->
<g id="node1" class="node"><title>httpd</title>
<ellipse fill="none" stroke="black" cx="79" cy="-801" rx="28.0736" ry="18"/>
<text text-anchor="middle" x="79" y="-796.8" font-family="Times,serif" font-size="14.00">httpd</text>
</g>
<!-- httpd_t -->
<g id="node2" class="node"><title>httpd_t</title>
<ellipse fill="none" stroke="black" cx="323" cy="-801" rx="35.3303" ry="18"/>
<text text-anchor="middle" x="323" y="-796.8" font-family="Times,serif" font-size="14.00">httpd_t</text>
</g>
<!-- httpd&#45;&#45;httpd_t -->
<g id="edge1" class="edge"><title>httpd&#45;&#45;httpd_t</title>
<path fill="none" stroke="black" d="M107.29,-801C151.667,-801 239.372,-801 287.828,-801"/>
</g>
<!-- httpd_can_network_relay -->
<g id="node3" class="node"><title>httpd_can_network_relay</title>
<ellipse fill="none" stroke="black" cx="629" cy="-1584" rx="100.452" ry="18"/>
<text text-anchor="middle" x="629" y="-1579.8" font-family="Times,serif" font-size="14.00">httpd_can_network_relay</text>
</g>
<!-- httpd_t&#45;&#45;httpd_can_network_relay -->
<g id="edge2" class="edge"><title>httpd_t&#45;&#45;httpd_can_network_relay</title>
<path fill="none" stroke="black" d="M358.09,-799.098C383.783,-799.711 417.629,-805.301 436,-828 459.67,-857.246 442.78,-1469.09 454,-1505 462.235,-1531.36 465.073,-1541.61 488,-1557 502.182,-1566.52 518.889,-1572.87 535.731,-1577.06"/>
<text text-anchor="middle" x="462" y="-1543.8" font-family="Times,serif" font-size="14.00">off</text>
</g>
<!-- httpd_can_connect_mythtv -->
<g id="node4" class="node"><title>httpd_can_connect_mythtv</title>
<ellipse fill="none" stroke="black" cx="629" cy="-1530" rx="106.258" ry="18"/>
<text text-anchor="middle" x="629" y="-1525.8" font-family="Times,serif" font-size="14.00">httpd_can_connect_mythtv</text>
</g>
<!-- httpd_t&#45;&#45;httpd_can_connect_mythtv -->
<g id="edge3" class="edge"><title>httpd_t&#45;&#45;httpd_can_connect_mythtv</title>
<path fill="none" stroke="black" d="M358.075,-799.11C383.761,-799.729 417.602,-805.322 436,-828 457.814,-854.89 443.636,-1417.96 454,-1451 462.265,-1477.35 465.073,-1487.61 488,-1503 501.36,-1511.97 516.961,-1518.12 532.803,-1522.31"/>
<text text-anchor="middle" x="462" y="-1489.8" font-family="Times,serif" font-size="14.00">off</text>
</g>
<!-- httpd_can_network_connect_db -->
<g id="node5" class="node"><title>httpd_can_network_connect_db</title>
<ellipse fill="none" stroke="black" cx="629" cy="-1476" rx="123.63" ry="18"/>
<text text-anchor="middle" x="629" y="-1471.8" font-family="Times,serif" font-size="14.00">httpd_can_network_connect_db</text>
</g>
<!-- httpd_t&#45;&#45;httpd_can_network_connect_db -->
<g id="edge4" class="edge"><title>httpd_t&#45;&#45;httpd_can_network_connect_db</title>
<path fill="none" stroke="black" d="M358.058,-799.124C383.734,-799.751 417.571,-805.347 436,-828 455.959,-852.534 444.492,-1366.84 454,-1397 462.301,-1423.34 465.073,-1433.61 488,-1449 499.201,-1456.52 511.979,-1462.06 525.153,-1466.12"/>
<text text-anchor="middle" x="462" y="-1435.8" font-family="Times,serif" font-size="14.00">off</text>
</g>
<!-- httpd_use_gpg -->
<g id="node6" class="node"><title>httpd_use_gpg</title>
<ellipse fill="none" stroke="black" cx="629" cy="-1422" rx="62.3667" ry="18"/>
<text text-anchor="middle" x="629" y="-1417.8" font-family="Times,serif" font-size="14.00">httpd_use_gpg</text>
</g>
<!-- httpd_t&#45;&#45;httpd_use_gpg -->
<g id="edge5" class="edge"><title>httpd_t&#45;&#45;httpd_use_gpg</title>
<path fill="none" stroke="black" d="M358.037,-799.141C383.702,-799.777 417.534,-805.378 436,-828 472.207,-872.356 436.697,-1288.42 454,-1343 462.345,-1369.32 465.073,-1379.61 488,-1395 511.02,-1410.45 540.694,-1417.55 566.794,-1420.65"/>
<text text-anchor="middle" x="462" y="-1381.8" font-family="Times,serif" font-size="14.00">off</text>
</g>
<!-- httpd_dbus_sssd -->
<g id="node7" class="node"><title>httpd_dbus_sssd</title>
<ellipse fill="none" stroke="black" cx="629" cy="-1368" rx="68.6651" ry="18"/>
<text text-anchor="middle" x="629" y="-1363.8" font-family="Times,serif" font-size="14.00">httpd_dbus_sssd</text>
</g>
<!-- httpd_t&#45;&#45;httpd_dbus_sssd -->
<g id="edge6" class="edge"><title>httpd_t&#45;&#45;httpd_dbus_sssd</title>
<path fill="none" stroke="black" d="M358.012,-799.162C383.662,-799.81 417.488,-805.415 436,-828 468.496,-867.645 438.409,-1240.17 454,-1289 462.399,-1315.3 465.073,-1325.61 488,-1341 509.273,-1355.28 536.228,-1362.42 560.794,-1365.87"/>
<text text-anchor="middle" x="462" y="-1327.8" font-family="Times,serif" font-size="14.00">off</text>
</g>
<!-- httpd_verify_dns -->
<g id="node10" class="node"><title>httpd_verify_dns</title>
<ellipse fill="none" stroke="black" cx="629" cy="-1314" rx="70.56" ry="18"/>
<text text-anchor="middle" x="629" y="-1309.8" font-family="Times,serif" font-size="14.00">httpd_verify_dns</text>
</g>
<!-- httpd_t&#45;&#45;httpd_verify_dns -->
<g id="edge8" class="edge"><title>httpd_t&#45;&#45;httpd_verify_dns</title>
<path fill="none" stroke="black" d="M358.243,-799.195C383.844,-799.889 417.493,-805.541 436,-828 464.786,-862.934 440.121,-1191.91 454,-1235 462.467,-1261.28 465.073,-1271.61 488,-1287 508.759,-1300.93 534.929,-1308.07 559.01,-1311.61"/>
<text text-anchor="middle" x="462" y="-1273.8" font-family="Times,serif" font-size="14.00">off</text>
</g>
<!-- git_system_use_cifs -->
<g id="node13" class="node"><title>git_system_use_cifs</title>
<ellipse fill="none" stroke="black" cx="629" cy="-1260" rx="81.6612" ry="18"/>
<text text-anchor="middle" x="629" y="-1255.8" font-family="Times,serif" font-size="14.00">git_system_use_cifs</text>
</g>
<!-- httpd_t&#45;&#45;git_system_use_cifs -->
<g id="edge10" class="edge"><title>httpd_t&#45;&#45;git_system_use_cifs</title>
<path fill="none" stroke="black" d="M358.201,-799.23C383.778,-799.943 417.417,-805.603 436,-828 461.077,-858.224 441.832,-1143.66 454,-1181 462.555,-1207.25 465.073,-1217.61 488,-1233 505.881,-1245 527.778,-1251.96 548.896,-1255.93"/>
<text text-anchor="middle" x="462" y="-1219.8" font-family="Times,serif" font-size="14.00">off</text>
</g>
<!-- httpd_anon_write -->
<g id="node14" class="node"><title>httpd_anon_write</title>
<ellipse fill="none" stroke="black" cx="629" cy="-1206" rx="72.4808" ry="18"/>
<text text-anchor="middle" x="629" y="-1201.8" font-family="Times,serif" font-size="14.00">httpd_anon_write</text>
</g>
<!-- httpd_t&#45;&#45;httpd_anon_write -->
<g id="edge11" class="edge"><title>httpd_t&#45;&#45;httpd_anon_write</title>
<path fill="none" stroke="black" d="M358.143,-799.278C383.69,-800.017 417.315,-805.689 436,-828 457.369,-853.516 443.543,-1095.4 454,-1127 462.676,-1153.21 465.073,-1163.61 488,-1179 508.245,-1192.59 533.637,-1199.72 557.218,-1203.35"/>
<text text-anchor="middle" x="462" y="-1165.8" font-family="Times,serif" font-size="14.00">off</text>
</g>
<!-- httpd_use_cifs -->
<g id="node15" class="node"><title>httpd_use_cifs</title>
<ellipse fill="none" stroke="black" cx="629" cy="-1152" rx="61.8736" ry="18"/>
<text text-anchor="middle" x="629" y="-1147.8" font-family="Times,serif" font-size="14.00">httpd_use_cifs</text>
</g>
<!-- httpd_t&#45;&#45;httpd_use_cifs -->
<g id="edge12" class="edge"><title>httpd_t&#45;&#45;httpd_use_cifs</title>
<path fill="none" stroke="black" d="M358.059,-799.349C383.56,-800.127 417.164,-805.815 436,-828 471.189,-869.446 436.793,-1020.42 454,-1072 462.857,-1098.55 464.831,-1109.3 488,-1125 511.157,-1140.69 541.148,-1147.79 567.429,-1150.82"/>
<text text-anchor="middle" x="462" y="-1111.8" font-family="Times,serif" font-size="14.00">off</text>
</g>
<!-- httpd_enable_homedirs -->
<g id="node16" class="node"><title>httpd_enable_homedirs</title>
<ellipse fill="none" stroke="black" cx="629" cy="-1098" rx="93.236" ry="18"/>
<text text-anchor="middle" x="629" y="-1093.8" font-family="Times,serif" font-size="14.00">httpd_enable_homedirs</text>
</g>
<!-- httpd_t&#45;&#45;httpd_enable_homedirs -->
<g id="edge13" class="edge"><title>httpd_t&#45;&#45;httpd_enable_homedirs</title>
<path fill="none" stroke="black" d="M358.193,-799.468C383.592,-800.336 417,-806.088 436,-828 463.785,-860.043 440.16,-977.911 454,-1018 463.133,-1044.45 464.831,-1055.3 488,-1071 503.472,-1081.48 521.995,-1088.13 540.424,-1092.29"/>
<text text-anchor="middle" x="462" y="-1056.8" font-family="Times,serif" font-size="14.00">off</text>
</g>
<!-- git_system_use_nfs -->
<g id="node17" class="node"><title>git_system_use_nfs</title>
<ellipse fill="none" stroke="black" cx="629" cy="-1044" rx="79.7403" ry="18"/>
<text text-anchor="middle" x="629" y="-1039.8" font-family="Times,serif" font-size="14.00">git_system_use_nfs</text>
</g>
<!-- httpd_t&#45;&#45;git_system_use_nfs -->
<g id="edge14" class="edge"><title>httpd_t&#45;&#45;git_system_use_nfs</title>
<path fill="none" stroke="black" d="M358.233,-799.674C383.481,-800.678 416.674,-806.51 436,-828 456.533,-850.831 443.331,-936.207 454,-965 463.594,-990.892 465.073,-1001.61 488,-1017 506.395,-1029.35 529.04,-1036.36 550.714,-1040.26"/>
<text text-anchor="middle" x="462" y="-1002.8" font-family="Times,serif" font-size="14.00">off</text>
</g>
<!-- httpd_run_stickshift -->
<g id="node20" class="node"><title>httpd_run_stickshift</title>
<ellipse fill="none" stroke="black" cx="629" cy="-990" rx="81.1853" ry="18"/>
<text text-anchor="middle" x="629" y="-985.8" font-family="Times,serif" font-size="14.00">httpd_run_stickshift</text>
</g>
<!-- httpd_t&#45;&#45;httpd_run_stickshift -->
<g id="edge16" class="edge"><title>httpd_t&#45;&#45;httpd_run_stickshift</title>
<path fill="none" stroke="black" d="M358.256,-800.167C383.177,-801.475 415.939,-807.473 436,-828 462.382,-854.996 439.429,-876.179 454,-911 464.659,-936.473 465.073,-947.612 488,-963 506.087,-975.139 528.282,-982.124 549.624,-986.062"/>
<text text-anchor="middle" x="462" y="-949.8" font-family="Times,serif" font-size="14.00">off</text>
</g>
<!-- httpd_use_fusefs -->
<g id="node21" class="node"><title>httpd_use_fusefs</title>
<ellipse fill="none" stroke="black" cx="629" cy="-936" rx="70.0754" ry="18"/>
<text text-anchor="middle" x="629" y="-931.8" font-family="Times,serif" font-size="14.00">httpd_use_fusefs</text>
</g>
<!-- httpd_t&#45;&#45;httpd_use_fusefs -->
<g id="edge17" class="edge"><title>httpd_t&#45;&#45;httpd_use_fusefs</title>
<path fill="none" stroke="black" d="M358.193,-801.751C382.279,-803.931 414.023,-810.326 436,-828 450.251,-839.46 444.359,-849.461 454,-865 467.03,-886 466.953,-896.046 488,-909 509.397,-922.169 535.835,-929.14 559.953,-932.757"/>
<text text-anchor="middle" x="462" y="-895.8" font-family="Times,serif" font-size="14.00">off</text>
</g>
<!-- httpd_can_connect_ldap -->
<g id="node22" class="node"><title>httpd_can_connect_ldap</title>
<ellipse fill="none" stroke="black" cx="629" cy="-882" rx="96.5931" ry="18"/>
<text text-anchor="middle" x="629" y="-877.8" font-family="Times,serif" font-size="14.00">httpd_can_connect_ldap</text>
</g>
<!-- httpd_t&#45;&#45;httpd_can_connect_ldap -->
<g id="edge18" class="edge"><title>httpd_t&#45;&#45;httpd_can_connect_ldap</title>
<path fill="none" stroke="black" d="M356.48,-806.664C379.177,-811.142 409.958,-818.265 436,-828 460.392,-837.118 463.404,-846.446 488,-855 507.99,-861.952 530.243,-867.273 551.019,-871.275"/>
<text text-anchor="middle" x="462" y="-849.8" font-family="Times,serif" font-size="14.00">off</text>
</g>
<!-- httpd_use_sasl -->
<g id="node24" class="node"><title>httpd_use_sasl</title>
<ellipse fill="none" stroke="black" cx="629" cy="-828" rx="62.3667" ry="18"/>
<text text-anchor="middle" x="629" y="-823.8" font-family="Times,serif" font-size="14.00">httpd_use_sasl</text>
</g>
<!-- httpd_t&#45;&#45;httpd_use_sasl -->
<g id="edge20" class="edge"><title>httpd_t&#45;&#45;httpd_use_sasl</title>
<path fill="none" stroke="black" d="M357.695,-803.993C408.787,-808.53 506.549,-817.213 569.441,-822.799"/>
<text text-anchor="middle" x="462" y="-816.8" font-family="Times,serif" font-size="14.00">off</text>
</g>
<!-- httpd_graceful_shutdown -->
<g id="node29" class="node"><title>httpd_graceful_shutdown</title>
<ellipse fill="none" stroke="black" cx="629" cy="-774" rx="100.478" ry="18"/>
<text text-anchor="middle" x="629" y="-769.8" font-family="Times,serif" font-size="14.00">httpd_graceful_shutdown</text>
</g>
<!-- httpd_t&#45;&#45;httpd_graceful_shutdown -->
<g id="edge24" class="edge"><title>httpd_t&#45;&#45;httpd_graceful_shutdown</title>
<path fill="none" stroke="black" d="M357.695,-798.007C400.98,-794.163 477.763,-787.343 538.46,-781.953"/>
<text text-anchor="middle" x="462" y="-792.8" font-family="Times,serif" font-size="14.00">on</text>
</g>
<!-- httpd_can_connect_ftp -->
<g id="node30" class="node"><title>httpd_can_connect_ftp</title>
<ellipse fill="none" stroke="black" cx="629" cy="-720" rx="91.2894" ry="18"/>
<text text-anchor="middle" x="629" y="-715.8" font-family="Times,serif" font-size="14.00">httpd_can_connect_ftp</text>
</g>
<!-- httpd_t&#45;&#45;httpd_can_connect_ftp -->
<g id="edge25" class="edge"><title>httpd_t&#45;&#45;httpd_can_connect_ftp</title>
<path fill="none" stroke="black" d="M351.825,-790.63C384.192,-778.851 439.405,-759.631 488,-747 510.879,-741.053 536.171,-735.786 558.892,-731.518"/>
<text text-anchor="middle" x="462" y="-758.8" font-family="Times,serif" font-size="14.00">off</text>
</g>
<!-- httpd_read_user_content -->
<g id="node31" class="node"><title>httpd_read_user_content</title>
<ellipse fill="none" stroke="black" cx="629" cy="-666" rx="97.5621" ry="18"/>
<text text-anchor="middle" x="629" y="-661.8" font-family="Times,serif" font-size="14.00">httpd_read_user_content</text>
</g>
<!-- httpd_t&#45;&#45;httpd_read_user_content -->
<g id="edge26" class="edge"><title>httpd_t&#45;&#45;httpd_read_user_content</title>
<path fill="none" stroke="black" d="M341.833,-785.787C370.595,-762.091 429.897,-716.642 488,-693 506.686,-685.397 527.664,-679.898 547.58,-675.934"/>
<text text-anchor="middle" x="462" y="-711.8" font-family="Times,serif" font-size="14.00">off</text>
</g>
<!-- httpd_use_nfs -->
<g id="node32" class="node"><title>httpd_use_nfs</title>
<ellipse fill="none" stroke="black" cx="629" cy="-612" rx="59.953" ry="18"/>
<text text-anchor="middle" x="629" y="-607.8" font-family="Times,serif" font-size="14.00">httpd_use_nfs</text>
</g>
<!-- httpd_t&#45;&#45;httpd_use_nfs -->
<g id="edge27" class="edge"><title>httpd_t&#45;&#45;httpd_use_nfs</title>
<path fill="none" stroke="black" d="M335.737,-783.985C359.94,-750.33 418.955,-675.376 488,-639 513.185,-625.731 543.995,-618.935 570.293,-615.474"/>
<text text-anchor="middle" x="462" y="-661.8" font-family="Times,serif" font-size="14.00">off</text>
</g>
<!-- httpd_can_connect_zabbix -->
<g id="node33" class="node"><title>httpd_can_connect_zabbix</title>
<ellipse fill="none" stroke="black" cx="629" cy="-558" rx="104.787" ry="18"/>
<text text-anchor="middle" x="629" y="-553.8" font-family="Times,serif" font-size="14.00">httpd_can_connect_zabbix</text>
</g>
<!-- httpd_t&#45;&#45;httpd_can_connect_zabbix -->
<g id="edge28" class="edge"><title>httpd_t&#45;&#45;httpd_can_connect_zabbix</title>
<path fill="none" stroke="black" d="M331.738,-783.545C351.261,-741.707 406.814,-635.443 488,-585 502.087,-576.247 518.39,-570.227 534.784,-566.108"/>
<text text-anchor="middle" x="462" y="-609.8" font-family="Times,serif" font-size="14.00">off</text>
</g>
<!-- httpd_manage_ipa -->
<g id="node35" class="node"><title>httpd_manage_ipa</title>
<ellipse fill="none" stroke="black" cx="629" cy="-504" rx="75.3621" ry="18"/>
<text text-anchor="middle" x="629" y="-499.8" font-family="Times,serif" font-size="14.00">httpd_manage_ipa</text>
</g>
<!-- httpd_t&#45;&#45;httpd_manage_ipa -->
<g id="edge30" class="edge"><title>httpd_t&#45;&#45;httpd_manage_ipa</title>
<path fill="none" stroke="black" d="M329.065,-783.188C344.082,-733.902 393.33,-595.139 488,-531 507.366,-517.88 531.511,-510.767 554.269,-507.014"/>
<text text-anchor="middle" x="462" y="-560.8" font-family="Times,serif" font-size="14.00">off</text>
</g>
<!-- httpd_builtin_scripting -->
<g id="node37" class="node"><title>httpd_builtin_scripting</title>
<ellipse fill="none" stroke="black" cx="629" cy="-450" rx="91.3413" ry="18"/>
<text text-anchor="middle" x="629" y="-445.8" font-family="Times,serif" font-size="14.00">httpd_builtin_scripting</text>
</g>
<!-- httpd_t&#45;&#45;httpd_builtin_scripting -->
<g id="edge32" class="edge"><title>httpd_t&#45;&#45;httpd_builtin_scripting</title>
<path fill="none" stroke="black" d="M326.889,-782.982C337.009,-726.438 376.499,-551.837 488,-477 503.929,-466.309 523.044,-459.617 541.956,-455.481"/>
<text text-anchor="middle" x="462" y="-504.8" font-family="Times,serif" font-size="14.00">on</text>
</g>
<!-- httpd_can_check_spam -->
<g id="node38" class="node"><title>httpd_can_check_spam</title>
<ellipse fill="none" stroke="black" cx="629" cy="-396" rx="93.2188" ry="18"/>
<text text-anchor="middle" x="629" y="-391.8" font-family="Times,serif" font-size="14.00">httpd_can_check_spam</text>
</g>
<!-- httpd_t&#45;&#45;httpd_can_check_spam -->
<g id="edge33" class="edge"><title>httpd_t&#45;&#45;httpd_can_check_spam</title>
<path fill="none" stroke="black" d="M325.377,-783.022C331.251,-720.325 360.15,-510.41 488,-423 503.428,-412.452 521.933,-405.777 540.358,-401.609"/>
<text text-anchor="middle" x="462" y="-453.8" font-family="Times,serif" font-size="14.00">off</text>
</g>
<!-- httpd_can_network_memcache -->
<g id="node39" class="node"><title>httpd_can_network_memcache</title>
<ellipse fill="none" stroke="black" cx="629" cy="-342" rx="120.714" ry="18"/>
<text text-anchor="middle" x="629" y="-337.8" font-family="Times,serif" font-size="14.00">httpd_can_network_memcache</text>
</g>
<!-- httpd_t&#45;&#45;httpd_can_network_memcache -->
<g id="edge34" class="edge"><title>httpd_t&#45;&#45;httpd_can_network_memcache</title>
<path fill="none" stroke="black" d="M324.274,-782.859C326.406,-714.314 344.173,-469.896 488,-369 499.145,-361.181 511.964,-355.476 525.222,-351.337"/>
<text text-anchor="middle" x="462" y="-395.8" font-family="Times,serif" font-size="14.00">off</text>
</g>
<!-- httpd_can_network_connect_cobbler -->
<g id="node40" class="node"><title>httpd_can_network_connect_cobbler</title>
<ellipse fill="none" stroke="black" cx="629" cy="-288" rx="141.478" ry="18"/>
<text text-anchor="middle" x="629" y="-283.8" font-family="Times,serif" font-size="14.00">httpd_can_network_connect_cobbler</text>
</g>
<!-- httpd_t&#45;&#45;httpd_can_network_connect_cobbler -->
<g id="edge35" class="edge"><title>httpd_t&#45;&#45;httpd_can_network_connect_cobbler</title>
<path fill="none" stroke="black" d="M327.451,-782.97C339.477,-722.238 382.728,-520.355 454,-367 465.638,-341.959 465.073,-330.388 488,-315 497.763,-308.447 508.723,-303.397 520.099,-299.517"/>
<text text-anchor="middle" x="462" y="-369.8" font-family="Times,serif" font-size="14.00">off</text>
</g>
<!-- httpd_serve_cobbler_files -->
<g id="node41" class="node"><title>httpd_serve_cobbler_files</title>
<ellipse fill="none" stroke="black" cx="629" cy="-234" rx="101.438" ry="18"/>
<text text-anchor="middle" x="629" y="-229.8" font-family="Times,serif" font-size="14.00">httpd_serve_cobbler_files</text>
</g>
<!-- httpd_t&#45;&#45;httpd_serve_cobbler_files -->
<g id="edge36" class="edge"><title>httpd_t&#45;&#45;httpd_serve_cobbler_files</title>
<path fill="none" stroke="black" d="M326.852,-782.692C337.486,-717.125 378.165,-488.698 454,-315 465.348,-289.008 464.588,-277.007 488,-261 501.895,-251.5 518.287,-245.142 534.867,-240.927"/>
<text text-anchor="middle" x="462" y="-317.8" font-family="Times,serif" font-size="14.00">off</text>
</g>
<!-- httpd_execmem -->
<g id="node43" class="node"><title>httpd_execmem</title>
<ellipse fill="none" stroke="black" cx="629" cy="-180" rx="66.6752" ry="18"/>
<text text-anchor="middle" x="629" y="-175.8" font-family="Times,serif" font-size="14.00">httpd_execmem</text>
</g>
<!-- httpd_t&#45;&#45;httpd_execmem -->
<g id="edge38" class="edge"><title>httpd_t&#45;&#45;httpd_execmem</title>
<path fill="none" stroke="black" d="M326.219,-782.614C335.143,-712.433 371.942,-455.583 454,-261 465.02,-234.868 464.588,-223.007 488,-207 509.66,-192.191 537.386,-185.017 562.44,-181.694"/>
<text text-anchor="middle" x="462" y="-263.8" font-family="Times,serif" font-size="14.00">off</text>
</g>
<!-- httpd_ssi_exec -->
<g id="node44" class="node"><title>httpd_ssi_exec</title>
<ellipse fill="none" stroke="black" cx="629" cy="-126" rx="62.8339" ry="18"/>
<text text-anchor="middle" x="629" y="-121.8" font-family="Times,serif" font-size="14.00">httpd_ssi_exec</text>
</g>
<!-- httpd_t&#45;&#45;httpd_ssi_exec -->
<g id="edge39" class="edge"><title>httpd_t&#45;&#45;httpd_ssi_exec</title>
<path fill="none" stroke="black" d="M325.667,-782.834C332.941,-708.716 365.585,-422.898 454,-207 464.748,-180.755 464.588,-169.007 488,-153 510.784,-137.423 540.279,-130.293 566.317,-127.207"/>
<text text-anchor="middle" x="462" y="-209.8" font-family="Times,serif" font-size="14.00">off</text>
</g>
<!-- httpd_enable_ftp_server -->
<g id="node46" class="node"><title>httpd_enable_ftp_server</title>
<ellipse fill="none" stroke="black" cx="629" cy="-72" rx="96.1085" ry="18"/>
<text text-anchor="middle" x="629" y="-67.8" font-family="Times,serif" font-size="14.00">httpd_enable_ftp_server</text>
</g>
<!-- httpd_t&#45;&#45;httpd_enable_ftp_server -->
<g id="edge41" class="edge"><title>httpd_t&#45;&#45;httpd_enable_ftp_server</title>
<path fill="none" stroke="black" d="M325.232,-782.795C331.016,-704.554 359.315,-390.092 454,-153 464.518,-126.662 464.588,-115.007 488,-99 502.815,-88.8713 520.467,-82.314 538.161,-78.1177"/>
<text text-anchor="middle" x="462" y="-155.8" font-family="Times,serif" font-size="14.00">off</text>
</g>
<!-- httpd_setrlimit -->
<g id="node47" class="node"><title>httpd_setrlimit</title>
<ellipse fill="none" stroke="black" cx="629" cy="-18" rx="62.3667" ry="18"/>
<text text-anchor="middle" x="629" y="-13.8" font-family="Times,serif" font-size="14.00">httpd_setrlimit</text>
</g>
<!-- httpd_t&#45;&#45;httpd_setrlimit -->
<g id="edge42" class="edge"><title>httpd_t&#45;&#45;httpd_setrlimit</title>
<path fill="none" stroke="black" d="M324.849,-782.958C329.206,-701.119 352.95,-357.599 454,-99 464.322,-72.5842 464.588,-61.0067 488,-45 510.886,-29.3529 540.544,-22.229 566.667,-19.1655"/>
<text text-anchor="middle" x="462" y="-101.8" font-family="Times,serif" font-size="14.00">off</text>
</g>
<!-- httpd_enable_cgi -->
<g id="node8" class="node"><title>httpd_enable_cgi</title>
<ellipse fill="none" stroke="black" cx="323" cy="-1017" rx="71.0186" ry="18"/>
<text text-anchor="middle" x="323" y="-1012.8" font-family="Times,serif" font-size="14.00">httpd_enable_cgi</text>
</g>
<!-- httpd_suexec_t -->
<g id="node9" class="node"><title>httpd_suexec_t</title>
<ellipse fill="none" stroke="black" cx="79" cy="-936" rx="63.7942" ry="18"/>
<text text-anchor="middle" x="79" y="-931.8" font-family="Times,serif" font-size="14.00">httpd_suexec_t</text>
</g>
<!-- httpd_suexec_t&#45;&#45;httpd_enable_cgi -->
<g id="edge7" class="edge"><title>httpd_suexec_t&#45;&#45;httpd_enable_cgi</title>
<path fill="none" stroke="black" d="M112.856,-951.337C138.82,-963.042 176.192,-978.979 210,-990 228.446,-996.013 248.993,-1001.35 267.401,-1005.65"/>
<text text-anchor="middle" x="184" y="-985.8" font-family="Times,serif" font-size="14.00">on</text>
</g>
<!-- httpd_can_network_connect -->
<g id="node23" class="node"><title>httpd_can_network_connect</title>
<ellipse fill="none" stroke="black" cx="323" cy="-963" rx="110.1" ry="18"/>
<text text-anchor="middle" x="323" y="-958.8" font-family="Times,serif" font-size="14.00">httpd_can_network_connect</text>
</g>
<!-- httpd_suexec_t&#45;&#45;httpd_can_network_connect -->
<g id="edge19" class="edge"><title>httpd_suexec_t&#45;&#45;httpd_can_network_connect</title>
<path fill="none" stroke="black" d="M138.581,-942.536C166.418,-945.642 200.325,-949.425 231.377,-952.889"/>
<text text-anchor="middle" x="184" y="-950.8" font-family="Times,serif" font-size="14.00">off</text>
</g>
<!-- httpd_tty_comm -->
<g id="node25" class="node"><title>httpd_tty_comm</title>
<ellipse fill="none" stroke="black" cx="323" cy="-909" rx="68.6392" ry="18"/>
<text text-anchor="middle" x="323" y="-904.8" font-family="Times,serif" font-size="14.00">httpd_tty_comm</text>
</g>
<!-- httpd_suexec_t&#45;&#45;httpd_tty_comm -->
<g id="edge21" class="edge"><title>httpd_suexec_t&#45;&#45;httpd_tty_comm</title>
<path fill="none" stroke="black" d="M138.581,-929.464C175.231,-925.375 222.401,-920.112 259.728,-915.948"/>
<text text-anchor="middle" x="184" y="-927.8" font-family="Times,serif" font-size="14.00">off</text>
</g>
<!-- httpd_can_sendmail -->
<g id="node36" class="node"><title>httpd_can_sendmail</title>
<ellipse fill="none" stroke="black" cx="323" cy="-855" rx="81.1594" ry="18"/>
<text text-anchor="middle" x="323" y="-850.8" font-family="Times,serif" font-size="14.00">httpd_can_sendmail</text>
</g>
<!-- httpd_suexec_t&#45;&#45;httpd_can_sendmail -->
<g id="edge31" class="edge"><title>httpd_suexec_t&#45;&#45;httpd_can_sendmail</title>
<path fill="none" stroke="black" d="M112.856,-920.663C138.82,-908.958 176.192,-893.021 210,-882 227.115,-876.421 246.039,-871.427 263.384,-867.297"/>
<text text-anchor="middle" x="184" y="-896.8" font-family="Times,serif" font-size="14.00">off</text>
</g>
<!-- git_cgi_enable_homedirs -->
<g id="node11" class="node"><title>git_cgi_enable_homedirs</title>
<ellipse fill="none" stroke="black" cx="323" cy="-1179" rx="99.5002" ry="18"/>
<text text-anchor="middle" x="323" y="-1174.8" font-family="Times,serif" font-size="14.00">git_cgi_enable_homedirs</text>
</g>
<!-- httpd_git_script_t -->
<g id="node12" class="node"><title>httpd_git_script_t</title>
<ellipse fill="none" stroke="black" cx="79" cy="-1125" rx="72.9826" ry="18"/>
<text text-anchor="middle" x="79" y="-1120.8" font-family="Times,serif" font-size="14.00">httpd_git_script_t</text>
</g>
<!-- httpd_git_script_t&#45;&#45;git_cgi_enable_homedirs -->
<g id="edge9" class="edge"><title>httpd_git_script_t&#45;&#45;git_cgi_enable_homedirs</title>
<path fill="none" stroke="black" d="M133.708,-1136.98C170.887,-1145.28 220.495,-1156.35 259.458,-1165.04"/>
<text text-anchor="middle" x="184" y="-1150.8" font-family="Times,serif" font-size="14.00">off</text>
</g>
<!-- git_cgi_use_nfs -->
<g id="node28" class="node"><title>git_cgi_use_nfs</title>
<ellipse fill="none" stroke="black" cx="323" cy="-1125" rx="66.2167" ry="18"/>
<text text-anchor="middle" x="323" y="-1120.8" font-family="Times,serif" font-size="14.00">git_cgi_use_nfs</text>
</g>
<!-- httpd_git_script_t&#45;&#45;git_cgi_use_nfs -->
<g id="edge23" class="edge"><title>httpd_git_script_t&#45;&#45;git_cgi_use_nfs</title>
<path fill="none" stroke="black" d="M152.28,-1125C185.428,-1125 224.432,-1125 256.684,-1125"/>
<text text-anchor="middle" x="184" y="-1127.8" font-family="Times,serif" font-size="14.00">off</text>
</g>
<!-- git_cgi_use_cifs -->
<g id="node42" class="node"><title>git_cgi_use_cifs</title>
<ellipse fill="none" stroke="black" cx="323" cy="-1071" rx="68.1374" ry="18"/>
<text text-anchor="middle" x="323" y="-1066.8" font-family="Times,serif" font-size="14.00">git_cgi_use_cifs</text>
</g>
<!-- httpd_git_script_t&#45;&#45;git_cgi_use_cifs -->
<g id="edge37" class="edge"><title>httpd_git_script_t&#45;&#45;git_cgi_use_cifs</title>
<path fill="none" stroke="black" d="M133.708,-1113.02C174.507,-1103.91 230.274,-1091.47 270.516,-1082.49"/>
<text text-anchor="middle" x="184" y="-1104.8" font-family="Times,serif" font-size="14.00">off</text>
</g>
<!-- httpd_unified -->
<g id="node18" class="node"><title>httpd_unified</title>
<ellipse fill="none" stroke="black" cx="323" cy="-1233" rx="57.0477" ry="18"/>
<text text-anchor="middle" x="323" y="-1228.8" font-family="Times,serif" font-size="14.00">httpd_unified</text>
</g>
<!-- httpd_user_script_t -->
<g id="node19" class="node"><title>httpd_user_script_t</title>
<ellipse fill="none" stroke="black" cx="79" cy="-1233" rx="78.278" ry="18"/>
<text text-anchor="middle" x="79" y="-1228.8" font-family="Times,serif" font-size="14.00">httpd_user_script_t</text>
</g>
<!-- httpd_user_script_t&#45;&#45;httpd_unified -->
<g id="edge15" class="edge"><title>httpd_user_script_t&#45;&#45;httpd_unified</title>
<path fill="none" stroke="black" d="M157.569,-1233C192.684,-1233 233.427,-1233 265.571,-1233"/>
<text text-anchor="middle" x="184" y="-1235.8" font-family="Times,serif" font-size="14.00">off</text>
</g>
<!-- httpd_sys_script_anon_write -->
<g id="node26" class="node"><title>httpd_sys_script_anon_write</title>
<ellipse fill="none" stroke="black" cx="323" cy="-1395" rx="112.072" ry="18"/>
<text text-anchor="middle" x="323" y="-1390.8" font-family="Times,serif" font-size="14.00">httpd_sys_script_anon_write</text>
</g>
<!-- httpd_sys_script_t -->
<g id="node27" class="node"><title>httpd_sys_script_t</title>
<ellipse fill="none" stroke="black" cx="79" cy="-1341" rx="74.9207" ry="18"/>
<text text-anchor="middle" x="79" y="-1336.8" font-family="Times,serif" font-size="14.00">httpd_sys_script_t</text>
</g>
<!-- httpd_sys_script_t&#45;&#45;httpd_sys_script_anon_write -->
<g id="edge22" class="edge"><title>httpd_sys_script_t&#45;&#45;httpd_sys_script_anon_write</title>
<path fill="none" stroke="black" d="M134.611,-1353.19C170.717,-1361.24 218.246,-1371.85 256.401,-1380.36"/>
<text text-anchor="middle" x="184" y="-1366.8" font-family="Times,serif" font-size="14.00">off</text>
</g>
<!-- httpd_tmp_exec -->
<g id="node34" class="node"><title>httpd_tmp_exec</title>
<ellipse fill="none" stroke="black" cx="323" cy="-1341" rx="67.1684" ry="18"/>
<text text-anchor="middle" x="323" y="-1336.8" font-family="Times,serif" font-size="14.00">httpd_tmp_exec</text>
</g>
<!-- httpd_sys_script_t&#45;&#45;httpd_tmp_exec -->
<g id="edge29" class="edge"><title>httpd_sys_script_t&#45;&#45;httpd_tmp_exec</title>
<path fill="none" stroke="black" d="M154.253,-1341C186.625,-1341 224.274,-1341 255.692,-1341"/>
<text text-anchor="middle" x="184" y="-1343.8" font-family="Times,serif" font-size="14.00">off</text>
</g>
<!-- httpd_use_openstack -->
<g id="node45" class="node"><title>httpd_use_openstack</title>
<ellipse fill="none" stroke="black" cx="323" cy="-1287" rx="84.0582" ry="18"/>
<text text-anchor="middle" x="323" y="-1282.8" font-family="Times,serif" font-size="14.00">httpd_use_openstack</text>
</g>
<!-- httpd_sys_script_t&#45;&#45;httpd_use_openstack -->
<g id="edge40" class="edge"><title>httpd_sys_script_t&#45;&#45;httpd_use_openstack</title>
<path fill="none" stroke="black" d="M134.611,-1328.81C173.087,-1320.23 224.534,-1308.75 263.787,-1299.99"/>
<text text-anchor="middle" x="184" y="-1320.8" font-family="Times,serif" font-size="14.00">off</text>
</g>
</g>
</svg>
