<?xml version="1.0" encoding="UTF-8" standalone="no"?>
<!DOCTYPE svg PUBLIC "-//W3C//DTD SVG 1.1//EN"
 "http://www.w3.org/Graphics/SVG/1.1/DTD/svg11.dtd">
<!-- Generated by graphviz version 2.36.0 (20140111.2315)
 -->
<!-- Title: %3 Pages: 1 -->
<svg width="186pt" height="360pt"
 viewBox="0.00 0.00 186.47 360.00" xmlns="http://www.w3.org/2000/svg" xmlns:xlink="http://www.w3.org/1999/xlink">
<g id="graph0" class="graph" transform="scale(0.235448 0.235448) rotate(0) translate(4 1525)">
<title>%3</title>
<polygon fill="white" stroke="none" points="-4,4 -4,-1525 788,-1525 788,4 -4,4"/>
<!-- httpd -->
<g id="node1" class="node"><title>httpd</title>
<ellipse fill="none" stroke="black" cx="75" cy="-639" rx="28.0736" ry="18"/>
<text text-anchor="middle" x="75" y="-634.8" font-family="Times,serif" font-size="14.00">httpd</text>
</g>
<!-- httpd_t -->
<g id="node2" class="node"><title>httpd_t</title>
<ellipse fill="none" stroke="black" cx="326" cy="-639" rx="35.3303" ry="18"/>
<text text-anchor="middle" x="326" y="-634.8" font-family="Times,serif" font-size="14.00">httpd_t</text>
</g>
<!-- httpd&#45;&#45;httpd_t -->
<g id="edge1" class="edge"><title>httpd&#45;&#45;httpd_t</title>
<path fill="none" stroke="black" d="M103.599,-639C149.309,-639 240.627,-639 290.515,-639"/>
</g>
<!-- httpd_can_network_relay -->
<g id="node3" class="node"><title>httpd_can_network_relay</title>
<ellipse fill="none" stroke="black" cx="643" cy="-1260" rx="100.452" ry="18"/>
<text text-anchor="middle" x="643" y="-1255.8" font-family="Times,serif" font-size="14.00">httpd_can_network_relay</text>
</g>
<!-- httpd_t&#45;&#45;httpd_can_network_relay -->
<g id="edge2" class="edge"><title>httpd_t&#45;&#45;httpd_can_network_relay</title>
<path fill="none" stroke="black" d="M360.872,-636.109C389.351,-635.741 428.724,-640.473 450,-666 486.659,-709.983 450.697,-1126.42 468,-1181 476.345,-1207.32 479.073,-1217.61 502,-1233 516.182,-1242.52 532.889,-1248.87 549.731,-1253.06"/>
<text text-anchor="middle" x="476" y="-1219.8" font-family="Times,serif" font-size="14.00">off</text>
</g>
<!-- httpd_can_connect_mythtv -->
<g id="node4" class="node"><title>httpd_can_connect_mythtv</title>
<ellipse fill="none" stroke="black" cx="643" cy="-1206" rx="106.258" ry="18"/>
<text text-anchor="middle" x="643" y="-1201.8" font-family="Times,serif" font-size="14.00">httpd_can_connect_mythtv</text>
</g>
<!-- httpd_t&#45;&#45;httpd_can_connect_mythtv -->
<g id="edge3" class="edge"><title>httpd_t&#45;&#45;httpd_can_connect_mythtv</title>
<path fill="none" stroke="black" d="M360.846,-636.13C389.308,-635.776 428.672,-640.517 450,-666 482.9,-705.31 452.409,-1078.17 468,-1127 476.399,-1153.3 479.073,-1163.61 502,-1179 515.36,-1187.97 530.961,-1194.12 546.803,-1198.31"/>
<text text-anchor="middle" x="476" y="-1165.8" font-family="Times,serif" font-size="14.00">off</text>
</g>
<!-- httpd_use_gpg -->
<g id="node7" class="node"><title>httpd_use_gpg</title>
<ellipse fill="none" stroke="black" cx="643" cy="-1152" rx="62.3667" ry="18"/>
<text text-anchor="middle" x="643" y="-1147.8" font-family="Times,serif" font-size="14.00">httpd_use_gpg</text>
</g>
<!-- httpd_t&#45;&#45;httpd_use_gpg -->
<g id="edge5" class="edge"><title>httpd_t&#45;&#45;httpd_use_gpg</title>
<path fill="none" stroke="black" d="M360.813,-636.158C389.255,-635.821 428.606,-640.572 450,-666 479.143,-700.638 454.121,-1029.91 468,-1073 476.467,-1099.28 479.073,-1109.61 502,-1125 525.02,-1140.45 554.694,-1147.55 580.794,-1150.65"/>
<text text-anchor="middle" x="476" y="-1111.8" font-family="Times,serif" font-size="14.00">off</text>
</g>
<!-- httpd_dbus_sssd -->
<g id="node8" class="node"><title>httpd_dbus_sssd</title>
<ellipse fill="none" stroke="black" cx="643" cy="-1098" rx="68.6651" ry="18"/>
<text text-anchor="middle" x="643" y="-1093.8" font-family="Times,serif" font-size="14.00">httpd_dbus_sssd</text>
</g>
<!-- httpd_t&#45;&#45;httpd_dbus_sssd -->
<g id="edge6" class="edge"><title>httpd_t&#45;&#45;httpd_dbus_sssd</title>
<path fill="none" stroke="black" d="M360.771,-636.193C389.185,-635.88 428.52,-640.644 450,-666 475.385,-695.966 455.832,-981.659 468,-1019 476.555,-1045.25 479.073,-1055.61 502,-1071 523.273,-1085.28 550.228,-1092.42 574.794,-1095.87"/>
<text text-anchor="middle" x="476" y="-1057.8" font-family="Times,serif" font-size="14.00">off</text>
</g>
<!-- httpd_verify_dns -->
<g id="node10" class="node"><title>httpd_verify_dns</title>
<ellipse fill="none" stroke="black" cx="643" cy="-1044" rx="70.56" ry="18"/>
<text text-anchor="middle" x="643" y="-1039.8" font-family="Times,serif" font-size="14.00">httpd_verify_dns</text>
</g>
<!-- httpd_t&#45;&#45;httpd_verify_dns -->
<g id="edge8" class="edge"><title>httpd_t&#45;&#45;httpd_verify_dns</title>
<path fill="none" stroke="black" d="M360.994,-636.24C389.349,-635.992 428.475,-640.826 450,-666 471.629,-691.296 457.543,-933.403 468,-965 476.676,-991.215 479.073,-1001.61 502,-1017 522.759,-1030.93 548.929,-1038.07 573.01,-1041.61"/>
<text text-anchor="middle" x="476" y="-1003.8" font-family="Times,serif" font-size="14.00">off</text>
</g>
<!-- httpd_anon_write -->
<g id="node13" class="node"><title>httpd_anon_write</title>
<ellipse fill="none" stroke="black" cx="643" cy="-990" rx="72.4808" ry="18"/>
<text text-anchor="middle" x="643" y="-985.8" font-family="Times,serif" font-size="14.00">httpd_anon_write</text>
</g>
<!-- httpd_t&#45;&#45;httpd_anon_write -->
<g id="edge10" class="edge"><title>httpd_t&#45;&#45;httpd_anon_write</title>
<path fill="none" stroke="black" d="M360.909,-636.313C389.211,-636.111 428.305,-640.972 450,-666 485.612,-707.084 450.793,-858.425 468,-910 476.857,-936.547 478.831,-947.303 502,-963 522.186,-976.676 547.564,-983.825 571.151,-987.445"/>
<text text-anchor="middle" x="476" y="-949.8" font-family="Times,serif" font-size="14.00">off</text>
</g>
<!-- httpd_run_stickshift -->
<g id="node18" class="node"><title>httpd_run_stickshift</title>
<ellipse fill="none" stroke="black" cx="643" cy="-936" rx="81.1853" ry="18"/>
<text text-anchor="middle" x="643" y="-931.8" font-family="Times,serif" font-size="14.00">httpd_run_stickshift</text>
</g>
<!-- httpd_t&#45;&#45;httpd_run_stickshift -->
<g id="edge14" class="edge"><title>httpd_t&#45;&#45;httpd_run_stickshift</title>
<path fill="none" stroke="black" d="M361.059,-636.425C389.257,-636.329 428.119,-641.281 450,-666 478.111,-697.757 454.16,-815.911 468,-856 477.133,-882.454 478.831,-893.303 502,-909 519.931,-921.149 541.961,-928.147 563.191,-932.096"/>
<text text-anchor="middle" x="476" y="-894.8" font-family="Times,serif" font-size="14.00">off</text>
</g>
<!-- httpd_can_connect_ldap -->
<g id="node20" class="node"><title>httpd_can_connect_ldap</title>
<ellipse fill="none" stroke="black" cx="643" cy="-882" rx="96.5931" ry="18"/>
<text text-anchor="middle" x="643" y="-877.8" font-family="Times,serif" font-size="14.00">httpd_can_connect_ldap</text>
</g>
<!-- httpd_t&#45;&#45;httpd_can_connect_ldap -->
<g id="edge16" class="edge"><title>httpd_t&#45;&#45;httpd_can_connect_ldap</title>
<path fill="none" stroke="black" d="M361.114,-636.627C389.149,-636.691 427.749,-641.761 450,-666 470.765,-688.62 457.331,-774.207 468,-803 477.594,-828.892 479.073,-839.612 502,-855 516.901,-865.001 534.591,-871.503 552.294,-875.686"/>
<text text-anchor="middle" x="476" y="-840.8" font-family="Times,serif" font-size="14.00">off</text>
</g>
<!-- httpd_can_network_connect -->
<g id="node21" class="node"><title>httpd_can_network_connect</title>
<ellipse fill="none" stroke="black" cx="643" cy="-828" rx="110.1" ry="18"/>
<text text-anchor="middle" x="643" y="-823.8" font-family="Times,serif" font-size="14.00">httpd_can_network_connect</text>
</g>
<!-- httpd_t&#45;&#45;httpd_can_network_connect -->
<g id="edge17" class="edge"><title>httpd_t&#45;&#45;httpd_can_network_connect</title>
<path fill="none" stroke="black" d="M361.166,-637.116C388.847,-637.538 426.918,-642.859 450,-666 476.657,-692.724 453.429,-714.179 468,-749 478.659,-774.473 479.073,-785.612 502,-801 514.743,-809.553 529.525,-815.547 544.612,-819.719"/>
<text text-anchor="middle" x="476" y="-787.8" font-family="Times,serif" font-size="14.00">off</text>
</g>
<!-- httpd_use_sasl -->
<g id="node22" class="node"><title>httpd_use_sasl</title>
<ellipse fill="none" stroke="black" cx="643" cy="-774" rx="62.3667" ry="18"/>
<text text-anchor="middle" x="643" y="-769.8" font-family="Times,serif" font-size="14.00">httpd_use_sasl</text>
</g>
<!-- httpd_t&#45;&#45;httpd_use_sasl -->
<g id="edge18" class="edge"><title>httpd_t&#45;&#45;httpd_use_sasl</title>
<path fill="none" stroke="black" d="M361.175,-638.703C387.942,-640.166 424.751,-646.117 450,-666 464.367,-677.314 458.359,-687.461 468,-703 481.03,-724 480.953,-734.046 502,-747 525.505,-761.466 555.093,-768.453 581.006,-771.732"/>
<text text-anchor="middle" x="476" y="-733.8" font-family="Times,serif" font-size="14.00">off</text>
</g>
<!-- httpd_graceful_shutdown -->
<g id="node26" class="node"><title>httpd_graceful_shutdown</title>
<ellipse fill="none" stroke="black" cx="643" cy="-720" rx="100.478" ry="18"/>
<text text-anchor="middle" x="643" y="-715.8" font-family="Times,serif" font-size="14.00">httpd_graceful_shutdown</text>
</g>
<!-- httpd_t&#45;&#45;httpd_graceful_shutdown -->
<g id="edge22" class="edge"><title>httpd_t&#45;&#45;httpd_graceful_shutdown</title>
<path fill="none" stroke="black" d="M360.032,-643.826C385.182,-648.076 420.4,-655.279 450,-666 474.484,-674.868 477.404,-684.446 502,-693 521.405,-699.749 542.944,-704.96 563.193,-708.921"/>
<text text-anchor="middle" x="476" y="-687.8" font-family="Times,serif" font-size="14.00">on</text>
</g>
<!-- httpd_can_connect_ftp -->
<g id="node27" class="node"><title>httpd_can_connect_ftp</title>
<ellipse fill="none" stroke="black" cx="643" cy="-666" rx="91.2894" ry="18"/>
<text text-anchor="middle" x="643" y="-661.8" font-family="Times,serif" font-size="14.00">httpd_can_connect_ftp</text>
</g>
<!-- httpd_t&#45;&#45;httpd_can_connect_ftp -->
<g id="edge23" class="edge"><title>httpd_t&#45;&#45;httpd_can_connect_ftp</title>
<path fill="none" stroke="black" d="M360.711,-641.889C407.69,-645.916 494.364,-653.346 559.135,-658.897"/>
<text text-anchor="middle" x="476" y="-654.8" font-family="Times,serif" font-size="14.00">off</text>
</g>
<!-- httpd_can_connect_zabbix -->
<g id="node30" class="node"><title>httpd_can_connect_zabbix</title>
<ellipse fill="none" stroke="black" cx="643" cy="-612" rx="104.787" ry="18"/>
<text text-anchor="middle" x="643" y="-607.8" font-family="Times,serif" font-size="14.00">httpd_can_connect_zabbix</text>
</g>
<!-- httpd_t&#45;&#45;httpd_can_connect_zabbix -->
<g id="edge26" class="edge"><title>httpd_t&#45;&#45;httpd_can_connect_zabbix</title>
<path fill="none" stroke="black" d="M360.711,-636.111C405.23,-632.295 485.396,-625.423 548.788,-619.99"/>
<text text-anchor="middle" x="476" y="-629.8" font-family="Times,serif" font-size="14.00">off</text>
</g>
<!-- httpd_manage_ipa -->
<g id="node32" class="node"><title>httpd_manage_ipa</title>
<ellipse fill="none" stroke="black" cx="643" cy="-558" rx="75.3621" ry="18"/>
<text text-anchor="middle" x="643" y="-553.8" font-family="Times,serif" font-size="14.00">httpd_manage_ipa</text>
</g>
<!-- httpd_t&#45;&#45;httpd_manage_ipa -->
<g id="edge28" class="edge"><title>httpd_t&#45;&#45;httpd_manage_ipa</title>
<path fill="none" stroke="black" d="M355.529,-629.147C389.949,-617.504 449.715,-598.067 502,-585 527.576,-578.608 556.101,-572.861 580.696,-568.33"/>
<text text-anchor="middle" x="476" y="-597.8" font-family="Times,serif" font-size="14.00">off</text>
</g>
<!-- httpd_can_sendmail -->
<g id="node33" class="node"><title>httpd_can_sendmail</title>
<ellipse fill="none" stroke="black" cx="643" cy="-504" rx="81.1594" ry="18"/>
<text text-anchor="middle" x="643" y="-499.8" font-family="Times,serif" font-size="14.00">httpd_can_sendmail</text>
</g>
<!-- httpd_t&#45;&#45;httpd_can_sendmail -->
<g id="edge29" class="edge"><title>httpd_t&#45;&#45;httpd_can_sendmail</title>
<path fill="none" stroke="black" d="M346.218,-623.839C377.167,-600.215 440.795,-554.861 502,-531 523.794,-522.504 548.575,-516.601 571.168,-512.534"/>
<text text-anchor="middle" x="476" y="-547.8" font-family="Times,serif" font-size="14.00">off</text>
</g>
<!-- httpd_builtin_scripting -->
<g id="node34" class="node"><title>httpd_builtin_scripting</title>
<ellipse fill="none" stroke="black" cx="643" cy="-450" rx="91.3413" ry="18"/>
<text text-anchor="middle" x="643" y="-445.8" font-family="Times,serif" font-size="14.00">httpd_builtin_scripting</text>
</g>
<!-- httpd_t&#45;&#45;httpd_builtin_scripting -->
<g id="edge30" class="edge"><title>httpd_t&#45;&#45;httpd_builtin_scripting</title>
<path fill="none" stroke="black" d="M339.603,-622.259C365.81,-588.758 429.788,-513.561 502,-477 519.999,-467.887 540.727,-461.84 560.622,-457.83"/>
<text text-anchor="middle" x="476" y="-499.8" font-family="Times,serif" font-size="14.00">on</text>
</g>
<!-- httpd_dbus_avahi -->
<g id="node35" class="node"><title>httpd_dbus_avahi</title>
<ellipse fill="none" stroke="black" cx="643" cy="-396" rx="72.9739" ry="18"/>
<text text-anchor="middle" x="643" y="-391.8" font-family="Times,serif" font-size="14.00">httpd_dbus_avahi</text>
</g>
<!-- httpd_t&#45;&#45;httpd_dbus_avahi -->
<g id="edge31" class="edge"><title>httpd_t&#45;&#45;httpd_dbus_avahi</title>
<path fill="none" stroke="black" d="M335.593,-621.538C357.169,-579.685 417.977,-473.388 502,-423 522.804,-410.524 548.196,-403.643 571.615,-399.902"/>
<text text-anchor="middle" x="476" y="-447.8" font-family="Times,serif" font-size="14.00">off</text>
</g>
<!-- httpd_can_check_spam -->
<g id="node36" class="node"><title>httpd_can_check_spam</title>
<ellipse fill="none" stroke="black" cx="643" cy="-342" rx="93.2188" ry="18"/>
<text text-anchor="middle" x="643" y="-337.8" font-family="Times,serif" font-size="14.00">httpd_can_check_spam</text>
</g>
<!-- httpd_t&#45;&#45;httpd_can_check_spam -->
<g id="edge32" class="edge"><title>httpd_t&#45;&#45;httpd_can_check_spam</title>
<path fill="none" stroke="black" d="M332.759,-621.129C349.702,-571.69 404.41,-432.569 502,-369 517.763,-358.732 536.506,-352.181 555.07,-348.045"/>
<text text-anchor="middle" x="476" y="-392.8" font-family="Times,serif" font-size="14.00">off</text>
</g>
<!-- httpd_can_network_memcache -->
<g id="node37" class="node"><title>httpd_can_network_memcache</title>
<ellipse fill="none" stroke="black" cx="643" cy="-288" rx="120.714" ry="18"/>
<text text-anchor="middle" x="643" y="-283.8" font-family="Times,serif" font-size="14.00">httpd_can_network_memcache</text>
</g>
<!-- httpd_t&#45;&#45;httpd_can_network_memcache -->
<g id="edge33" class="edge"><title>httpd_t&#45;&#45;httpd_can_network_memcache</title>
<path fill="none" stroke="black" d="M330.583,-621.071C342.869,-564.791 388.934,-390.888 502,-315 513.51,-307.275 526.683,-301.637 540.242,-297.544"/>
<text text-anchor="middle" x="476" y="-342.8" font-family="Times,serif" font-size="14.00">off</text>
</g>
<!-- httpd_can_network_connect_cobbler -->
<g id="node38" class="node"><title>httpd_can_network_connect_cobbler</title>
<ellipse fill="none" stroke="black" cx="643" cy="-234" rx="141.478" ry="18"/>
<text text-anchor="middle" x="643" y="-229.8" font-family="Times,serif" font-size="14.00">httpd_can_network_connect_cobbler</text>
</g>
<!-- httpd_t&#45;&#45;httpd_can_network_connect_cobbler -->
<g id="edge34" class="edge"><title>httpd_t&#45;&#45;httpd_can_network_connect_cobbler</title>
<path fill="none" stroke="black" d="M329.038,-620.655C337.119,-557.654 373.052,-349.16 502,-261 511.604,-254.434 522.401,-249.369 533.628,-245.474"/>
<text text-anchor="middle" x="476" y="-284.8" font-family="Times,serif" font-size="14.00">off</text>
</g>
<!-- httpd_serve_cobbler_files -->
<g id="node39" class="node"><title>httpd_serve_cobbler_files</title>
<ellipse fill="none" stroke="black" cx="643" cy="-180" rx="101.438" ry="18"/>
<text text-anchor="middle" x="643" y="-175.8" font-family="Times,serif" font-size="14.00">httpd_serve_cobbler_files</text>
</g>
<!-- httpd_t&#45;&#45;httpd_serve_cobbler_files -->
<g id="edge35" class="edge"><title>httpd_t&#45;&#45;httpd_serve_cobbler_files</title>
<path fill="none" stroke="black" d="M327.818,-620.914C331.994,-552.568 356.923,-308.773 502,-207 515.78,-197.333 532.117,-190.897 548.681,-186.657"/>
<text text-anchor="middle" x="476" y="-233.8" font-family="Times,serif" font-size="14.00">off</text>
</g>
<!-- httpd_ssi_exec -->
<g id="node42" class="node"><title>httpd_ssi_exec</title>
<ellipse fill="none" stroke="black" cx="643" cy="-126" rx="62.8339" ry="18"/>
<text text-anchor="middle" x="643" y="-121.8" font-family="Times,serif" font-size="14.00">httpd_ssi_exec</text>
</g>
<!-- httpd_t&#45;&#45;httpd_ssi_exec -->
<g id="edge38" class="edge"><title>httpd_t&#45;&#45;httpd_ssi_exec</title>
<path fill="none" stroke="black" d="M331.031,-620.991C344.983,-560.325 394.433,-358.625 468,-205 479.926,-180.095 479.073,-168.388 502,-153 524.917,-137.619 554.429,-130.514 580.444,-127.394"/>
<text text-anchor="middle" x="476" y="-207.8" font-family="Times,serif" font-size="14.00">off</text>
</g>
<!-- httpd_enable_ftp_server -->
<g id="node44" class="node"><title>httpd_enable_ftp_server</title>
<ellipse fill="none" stroke="black" cx="643" cy="-72" rx="96.1085" ry="18"/>
<text text-anchor="middle" x="643" y="-67.8" font-family="Times,serif" font-size="14.00">httpd_enable_ftp_server</text>
</g>
<!-- httpd_t&#45;&#45;httpd_enable_ftp_server -->
<g id="edge40" class="edge"><title>httpd_t&#45;&#45;httpd_enable_ftp_server</title>
<path fill="none" stroke="black" d="M330.382,-620.707C342.889,-555.189 389.89,-326.907 468,-153 479.62,-127.129 478.588,-115.007 502,-99 516.815,-88.8713 534.467,-82.314 552.161,-78.1177"/>
<text text-anchor="middle" x="476" y="-155.8" font-family="Times,serif" font-size="14.00">off</text>
</g>
<!-- httpd_setrlimit -->
<g id="node45" class="node"><title>httpd_setrlimit</title>
<ellipse fill="none" stroke="black" cx="643" cy="-18" rx="62.3667" ry="18"/>
<text text-anchor="middle" x="643" y="-13.8" font-family="Times,serif" font-size="14.00">httpd_setrlimit</text>
</g>
<!-- httpd_t&#45;&#45;httpd_setrlimit -->
<g id="edge41" class="edge"><title>httpd_t&#45;&#45;httpd_setrlimit</title>
<path fill="none" stroke="black" d="M329.7,-620.623C340.438,-550.473 383.677,-293.722 468,-99 479.27,-72.9745 478.588,-61.0067 502,-45 524.886,-29.3529 554.544,-22.229 580.667,-19.1655"/>
<text text-anchor="middle" x="476" y="-101.8" font-family="Times,serif" font-size="14.00">off</text>
</g>
<!-- httpd_can_network_connect_db -->
<g id="node5" class="node"><title>httpd_can_network_connect_db</title>
<ellipse fill="none" stroke="black" cx="326" cy="-1017" rx="123.63" ry="18"/>
<text text-anchor="middle" x="326" y="-1012.8" font-family="Times,serif" font-size="14.00">httpd_can_network_connect_db</text>
</g>
<!-- httpd_suexec_t -->
<g id="node6" class="node"><title>httpd_suexec_t</title>
<ellipse fill="none" stroke="black" cx="75" cy="-855" rx="63.7942" ry="18"/>
<text text-anchor="middle" x="75" y="-850.8" font-family="Times,serif" font-size="14.00">httpd_suexec_t</text>
</g>
<!-- httpd_suexec_t&#45;&#45;httpd_can_network_connect_db -->
<g id="edge4" class="edge"><title>httpd_suexec_t&#45;&#45;httpd_can_network_connect_db</title>
<path fill="none" stroke="black" d="M87.4894,-873.139C107.152,-902.588 150.191,-960.475 202,-990 212.732,-996.116 224.718,-1000.85 236.882,-1004.51"/>
<text text-anchor="middle" x="176" y="-978.8" font-family="Times,serif" font-size="14.00">off</text>
</g>
<!-- httpd_enable_cgi -->
<g id="node9" class="node"><title>httpd_enable_cgi</title>
<ellipse fill="none" stroke="black" cx="326" cy="-963" rx="71.0186" ry="18"/>
<text text-anchor="middle" x="326" y="-958.8" font-family="Times,serif" font-size="14.00">httpd_enable_cgi</text>
</g>
<!-- httpd_suexec_t&#45;&#45;httpd_enable_cgi -->
<g id="edge7" class="edge"><title>httpd_suexec_t&#45;&#45;httpd_enable_cgi</title>
<path fill="none" stroke="black" d="M97.4233,-872.189C121.486,-890.649 162.374,-919.539 202,-936 221.584,-944.135 243.986,-949.982 264.259,-954.106"/>
<text text-anchor="middle" x="176" y="-929.8" font-family="Times,serif" font-size="14.00">on</text>
</g>
<!-- httpd_use_cifs -->
<g id="node14" class="node"><title>httpd_use_cifs</title>
<ellipse fill="none" stroke="black" cx="326" cy="-909" rx="61.8736" ry="18"/>
<text text-anchor="middle" x="326" y="-904.8" font-family="Times,serif" font-size="14.00">httpd_use_cifs</text>
</g>
<!-- httpd_suexec_t&#45;&#45;httpd_use_cifs -->
<g id="edge11" class="edge"><title>httpd_suexec_t&#45;&#45;httpd_use_cifs</title>
<path fill="none" stroke="black" d="M126.089,-865.863C169.688,-875.318 232.517,-888.943 275.84,-898.339"/>
<text text-anchor="middle" x="176" y="-879.8" font-family="Times,serif" font-size="14.00">off</text>
</g>
<!-- httpd_enable_homedirs -->
<g id="node15" class="node"><title>httpd_enable_homedirs</title>
<ellipse fill="none" stroke="black" cx="326" cy="-855" rx="93.236" ry="18"/>
<text text-anchor="middle" x="326" y="-850.8" font-family="Times,serif" font-size="14.00">httpd_enable_homedirs</text>
</g>
<!-- httpd_suexec_t&#45;&#45;httpd_enable_homedirs -->
<g id="edge12" class="edge"><title>httpd_suexec_t&#45;&#45;httpd_enable_homedirs</title>
<path fill="none" stroke="black" d="M138.833,-855C167.215,-855 201.317,-855 232.536,-855"/>
<text text-anchor="middle" x="176" y="-857.8" font-family="Times,serif" font-size="14.00">off</text>
</g>
<!-- httpd_use_fusefs -->
<g id="node19" class="node"><title>httpd_use_fusefs</title>
<ellipse fill="none" stroke="black" cx="326" cy="-801" rx="70.0754" ry="18"/>
<text text-anchor="middle" x="326" y="-796.8" font-family="Times,serif" font-size="14.00">httpd_use_fusefs</text>
</g>
<!-- httpd_suexec_t&#45;&#45;httpd_use_fusefs -->
<g id="edge15" class="edge"><title>httpd_suexec_t&#45;&#45;httpd_use_fusefs</title>
<path fill="none" stroke="black" d="M126.089,-844.137C168.41,-834.959 228.85,-821.852 271.98,-812.498"/>
<text text-anchor="middle" x="176" y="-836.8" font-family="Times,serif" font-size="14.00">off</text>
</g>
<!-- httpd_tty_comm -->
<g id="node23" class="node"><title>httpd_tty_comm</title>
<ellipse fill="none" stroke="black" cx="326" cy="-747" rx="68.6392" ry="18"/>
<text text-anchor="middle" x="326" y="-742.8" font-family="Times,serif" font-size="14.00">httpd_tty_comm</text>
</g>
<!-- httpd_suexec_t&#45;&#45;httpd_tty_comm -->
<g id="edge19" class="edge"><title>httpd_suexec_t&#45;&#45;httpd_tty_comm</title>
<path fill="none" stroke="black" d="M97.4233,-837.811C121.486,-819.351 162.374,-790.461 202,-774 221.988,-765.697 244.911,-759.778 265.511,-755.641"/>
<text text-anchor="middle" x="176" y="-793.8" font-family="Times,serif" font-size="14.00">off</text>
</g>
<!-- httpd_use_nfs -->
<g id="node29" class="node"><title>httpd_use_nfs</title>
<ellipse fill="none" stroke="black" cx="326" cy="-693" rx="59.953" ry="18"/>
<text text-anchor="middle" x="326" y="-688.8" font-family="Times,serif" font-size="14.00">httpd_use_nfs</text>
</g>
<!-- httpd_suexec_t&#45;&#45;httpd_use_nfs -->
<g id="edge25" class="edge"><title>httpd_suexec_t&#45;&#45;httpd_use_nfs</title>
<path fill="none" stroke="black" d="M87.4894,-836.861C107.152,-807.412 150.191,-749.525 202,-720 222.134,-708.526 246.683,-701.925 268.538,-698.128"/>
<text text-anchor="middle" x="176" y="-746.8" font-family="Times,serif" font-size="14.00">off</text>
</g>
<!-- git_cgi_enable_homedirs -->
<g id="node11" class="node"><title>git_cgi_enable_homedirs</title>
<ellipse fill="none" stroke="black" cx="326" cy="-1179" rx="99.5002" ry="18"/>
<text text-anchor="middle" x="326" y="-1174.8" font-family="Times,serif" font-size="14.00">git_cgi_enable_homedirs</text>
</g>
<!-- httpd_git_script_t -->
<g id="node12" class="node"><title>httpd_git_script_t</title>
<ellipse fill="none" stroke="black" cx="75" cy="-1125" rx="72.9826" ry="18"/>
<text text-anchor="middle" x="75" y="-1120.8" font-family="Times,serif" font-size="14.00">httpd_git_script_t</text>
</g>
<!-- httpd_git_script_t&#45;&#45;git_cgi_enable_homedirs -->
<g id="edge9" class="edge"><title>httpd_git_script_t&#45;&#45;git_cgi_enable_homedirs</title>
<path fill="none" stroke="black" d="M130.336,-1136.78C168.973,-1145.16 220.994,-1156.44 261.539,-1165.24"/>
<text text-anchor="middle" x="176" y="-1149.8" font-family="Times,serif" font-size="14.00">off</text>
</g>
<!-- git_cgi_use_nfs -->
<g id="node25" class="node"><title>git_cgi_use_nfs</title>
<ellipse fill="none" stroke="black" cx="326" cy="-1125" rx="66.2167" ry="18"/>
<text text-anchor="middle" x="326" y="-1120.8" font-family="Times,serif" font-size="14.00">git_cgi_use_nfs</text>
</g>
<!-- httpd_git_script_t&#45;&#45;git_cgi_use_nfs -->
<g id="edge21" class="edge"><title>httpd_git_script_t&#45;&#45;git_cgi_use_nfs</title>
<path fill="none" stroke="black" d="M148.021,-1125C183.211,-1125 225.247,-1125 259.52,-1125"/>
<text text-anchor="middle" x="176" y="-1127.8" font-family="Times,serif" font-size="14.00">off</text>
</g>
<!-- git_cgi_use_cifs -->
<g id="node40" class="node"><title>git_cgi_use_cifs</title>
<ellipse fill="none" stroke="black" cx="326" cy="-1071" rx="68.1374" ry="18"/>
<text text-anchor="middle" x="326" y="-1066.8" font-family="Times,serif" font-size="14.00">git_cgi_use_cifs</text>
</g>
<!-- httpd_git_script_t&#45;&#45;git_cgi_use_cifs -->
<g id="edge36" class="edge"><title>httpd_git_script_t&#45;&#45;git_cgi_use_cifs</title>
<path fill="none" stroke="black" d="M130.336,-1113.22C172.693,-1104.03 231.137,-1091.36 272.91,-1082.3"/>
<text text-anchor="middle" x="176" y="-1106.8" font-family="Times,serif" font-size="14.00">off</text>
</g>
<!-- httpd_unified -->
<g id="node16" class="node"><title>httpd_unified</title>
<ellipse fill="none" stroke="black" cx="326" cy="-1503" rx="57.0477" ry="18"/>
<text text-anchor="middle" x="326" y="-1498.8" font-family="Times,serif" font-size="14.00">httpd_unified</text>
</g>
<!-- httpd_sys_script_t -->
<g id="node17" class="node"><title>httpd_sys_script_t</title>
<ellipse fill="none" stroke="black" cx="75" cy="-1368" rx="74.9207" ry="18"/>
<text text-anchor="middle" x="75" y="-1363.8" font-family="Times,serif" font-size="14.00">httpd_sys_script_t</text>
</g>
<!-- httpd_sys_script_t&#45;&#45;httpd_unified -->
<g id="edge13" class="edge"><title>httpd_sys_script_t&#45;&#45;httpd_unified</title>
<path fill="none" stroke="black" d="M91.1804,-1385.6C113.114,-1409.85 156.101,-1453.12 202,-1476 223.524,-1486.73 249.26,-1493.22 271.615,-1497.14"/>
<text text-anchor="middle" x="176" y="-1466.8" font-family="Times,serif" font-size="14.00">off</text>
</g>
<!-- httpd_sys_script_anon_write -->
<g id="node24" class="node"><title>httpd_sys_script_anon_write</title>
<ellipse fill="none" stroke="black" cx="326" cy="-1449" rx="112.072" ry="18"/>
<text text-anchor="middle" x="326" y="-1444.8" font-family="Times,serif" font-size="14.00">httpd_sys_script_anon_write</text>
</g>
<!-- httpd_sys_script_t&#45;&#45;httpd_sys_script_anon_write -->
<g id="edge20" class="edge"><title>httpd_sys_script_t&#45;&#45;httpd_sys_script_anon_write</title>
<path fill="none" stroke="black" d="M108.772,-1384.07C133.828,-1395.86 169.481,-1411.57 202,-1422 218.029,-1427.14 235.544,-1431.64 252.2,-1435.4"/>
<text text-anchor="middle" x="176" y="-1416.8" font-family="Times,serif" font-size="14.00">off</text>
</g>
<!-- httpd_read_user_content -->
<g id="node28" class="node"><title>httpd_read_user_content</title>
<ellipse fill="none" stroke="black" cx="326" cy="-1395" rx="97.5621" ry="18"/>
<text text-anchor="middle" x="326" y="-1390.8" font-family="Times,serif" font-size="14.00">httpd_read_user_content</text>
</g>
<!-- httpd_sys_script_t&#45;&#45;httpd_read_user_content -->
<g id="edge24" class="edge"><title>httpd_sys_script_t&#45;&#45;httpd_read_user_content</title>
<path fill="none" stroke="black" d="M143.711,-1375.34C173.81,-1378.61 209.544,-1382.48 241.297,-1385.92"/>
<text text-anchor="middle" x="176" y="-1381.8" font-family="Times,serif" font-size="14.00">off</text>
</g>
<!-- httpd_tmp_exec -->
<g id="node31" class="node"><title>httpd_tmp_exec</title>
<ellipse fill="none" stroke="black" cx="326" cy="-1341" rx="67.1684" ry="18"/>
<text text-anchor="middle" x="326" y="-1336.8" font-family="Times,serif" font-size="14.00">httpd_tmp_exec</text>
</g>
<!-- httpd_sys_script_t&#45;&#45;httpd_tmp_exec -->
<g id="edge27" class="edge"><title>httpd_sys_script_t&#45;&#45;httpd_tmp_exec</title>
<path fill="none" stroke="black" d="M143.711,-1360.66C181.01,-1356.61 226.964,-1351.63 263.271,-1347.69"/>
<text text-anchor="middle" x="176" y="-1359.8" font-family="Times,serif" font-size="14.00">off</text>
</g>
<!-- httpd_execmem -->
<g id="node41" class="node"><title>httpd_execmem</title>
<ellipse fill="none" stroke="black" cx="326" cy="-1287" rx="66.6752" ry="18"/>
<text text-anchor="middle" x="326" y="-1282.8" font-family="Times,serif" font-size="14.00">httpd_execmem</text>
</g>
<!-- httpd_sys_script_t&#45;&#45;httpd_execmem -->
<g id="edge37" class="edge"><title>httpd_sys_script_t&#45;&#45;httpd_execmem</title>
<path fill="none" stroke="black" d="M108.772,-1351.93C133.828,-1340.14 169.481,-1324.43 202,-1314 223.858,-1306.99 248.478,-1301.18 269.917,-1296.78"/>
<text text-anchor="middle" x="176" y="-1327.8" font-family="Times,serif" font-size="14.00">off</text>
</g>
<!-- httpd_use_openstack -->
<g id="node43" class="node"><title>httpd_use_openstack</title>
<ellipse fill="none" stroke="black" cx="326" cy="-1233" rx="84.0582" ry="18"/>
<text text-anchor="middle" x="326" y="-1228.8" font-family="Times,serif" font-size="14.00">httpd_use_openstack</text>
</g>
<!-- httpd_sys_script_t&#45;&#45;httpd_use_openstack -->
<g id="edge39" class="edge"><title>httpd_sys_script_t&#45;&#45;httpd_use_openstack</title>
<path fill="none" stroke="black" d="M91.1804,-1350.4C113.114,-1326.15 156.101,-1282.88 202,-1260 218.045,-1252 236.431,-1246.36 254.012,-1242.38"/>
<text text-anchor="middle" x="176" y="-1280.8" font-family="Times,serif" font-size="14.00">off</text>
</g>
</g>
</svg>
